<?xml version="1.0" encoding="UTF-8" standalone="no"?>
<!-- Created with Inkscape (http://www.inkscape.org/) -->

<svg
   width="120.02674mm"
   height="88.73642mm"
   viewBox="0 0 120.02674 88.73642"
   version="1.1"
   id="svg130"
   inkscape:version="1.1.1 (3bf5ae0d25, 2021-09-20)"
   sodipodi:docname="Australak.svg"
   xmlns:inkscape="http://www.inkscape.org/namespaces/inkscape"
   xmlns:sodipodi="http://sodipodi.sourceforge.net/DTD/sodipodi-0.dtd"
   xmlns="http://www.w3.org/2000/svg"
   xmlns:svg="http://www.w3.org/2000/svg">
  <sodipodi:namedview
     id="namedview132"
     pagecolor="#ffffff"
     bordercolor="#666666"
     borderopacity="1.0"
     inkscape:pageshadow="2"
     inkscape:pageopacity="0.0"
     inkscape:pagecheckerboard="0"
     inkscape:document-units="mm"
     showgrid="false"
     inkscape:zoom="0.77771465"
     inkscape:cx="191.58698"
     inkscape:cy="206.37389"
     inkscape:window-width="1920"
     inkscape:window-height="1147"
     inkscape:window-x="1192"
     inkscape:window-y="752"
     inkscape:window-maximized="1"
     inkscape:current-layer="layer1" />
  <defs
     id="defs127" />
  <g
     inkscape:label="Layer 1"
     inkscape:groupmode="layer"
     id="layer1"
     transform="translate(-54.546372,-93.819208)">
    <path
       style="fill:#000000;stroke-width:0.45143"
       d="m 83.403545,182.00172 c -3.58132,-3.44899 6.857198,-4.43721 4.71205,-9.42833 -0.113467,-5.12561 0.791196,-10.71701 -2.11759,-15.27371 -1.102797,-2.22766 -2.536753,-1.77033 -3.476161,-4.30761 -2.720715,2.60038 -0.841804,-3.71642 -3.044735,-0.52477 -1.315143,-2.86288 -2.537957,0.21592 -3.505668,-2.95753 -1.999048,2.04897 -0.268355,-2.61763 -2.628383,-0.0727 -0.134262,-4.22755 -2.925456,-8.14243 -5.132583,-11.17834 -3.795382,-3.14153 -4.607132,-8.5954 -4.184864,-13.34417 0.875972,-3.36188 9.822575,-8.81962 1.535204,-9.27774 -3.373344,1.30561 -12.155574,-1.16656 -6.479077,-5.02398 7.278816,-1.39411 -5.254246,-1.48111 -4.408287,-5.62694 -1.316321,-6.829271 7.955072,-2.75782 11.110545,-5.815869 2.915152,-3.818426 9.016045,-4.74263 12.540961,-5.350823 2.726197,0.679859 4.961805,5.986315 8.196868,8.218382 3.403399,3.62455 5.959194,7.46924 10.169435,10.32459 2.235554,4.84273 8.37964,4.18381 13.04508,5.0237 5.34067,-0.18892 10.4178,1.73564 15.76437,1.2807 6.44977,0.12711 13.11371,-0.47558 19.41024,0.91637 4.51878,2.96339 10.33835,5.2225 12.62811,10.58655 2.5592,5.01239 4.37947,10.37347 9.26937,13.67184 3.93832,3.30852 8.27537,7.02997 7.69919,12.72671 0.42872,2.0274 -1.42,-0.33644 -0.56826,2.74364 -2.60596,0.4638 -1.76284,5.7437 -4.05523,7.6773 -2.0439,1.15994 -4.6895,2.00451 -4.84363,-1.6494 -0.0215,5.77897 -4.19959,-4.16256 -2.98296,1.56673 -0.17739,3.01873 3.76815,5.00905 3.79084,7.44154 -2.08237,3.46965 -2.50829,9.54993 -8.14154,7.94248 -4.89871,0.90219 -2.73999,-3.46917 0.19529,-4.47315 0.77499,-2.54022 -2.44021,-11.01049 -0.99855,-3.99315 0.97107,5.32327 -9.60068,8.86241 -10.30932,4.04541 4.85296,-1.94447 3.88271,-8.33714 0.86348,-11.76621 -4.07865,-5.5222 -11.04366,-8.0408 -14.97122,-13.73962 -1.40862,-1.22707 -1.811,0.31226 -2.62719,-0.82045 -3.57636,-0.0993 -3.81222,1.18722 -7.18094,1.0533 0.20835,2.27865 -2.59321,-2.37406 -1.47694,1.02039 -1.79947,-0.71496 -3.2507,2.67881 -5.77874,1.55992 -1.57602,0.20224 -3.6336,3.31768 -3.76861,2.08377 -0.77587,-3.89801 -2.45335,3.68581 -2.68714,-1.3689 -1.03135,3.0597 -1.97643,-0.41884 -2.87235,2.76868 -1.65115,0.87111 -1.84733,-1.72452 -1.91863,1.71457 -3.14696,-2.26668 1.47681,4.90549 -2.18704,0.96882 -1.35798,-0.98136 3.1486,4.98722 0.65113,4.80079 0.35131,2.88013 -3.286543,0.9086 -1.19349,4.25887 -2.322466,0.0436 0.0938,1.55429 -2.491876,1.60147 3.660906,2.65748 -5.191373,1.49006 -4.180553,5.53705 -0.896774,5.58618 -7.136602,4.76463 -11.370623,4.4604 z"
       id="path146" />
  </g>
</svg>
