<?xml version="1.0" encoding="utf-8"?>
<!-- Generator: Adobe Illustrator 24.0.1, SVG Export Plug-In . SVG Version: 6.00 Build 0)  -->
<svg version="1.1" id="Layer_1" xmlns="http://www.w3.org/2000/svg" xmlns:xlink="http://www.w3.org/1999/xlink" x="0px" y="0px"
	 viewBox="0 0 143 198.4" style="enable-background:new 0 0 143 198.4;" xml:space="preserve">
<g>
	<path d="M5.4,21.1c0,0-1.7-20.8,12.3-21.1c7.2,0.6,10.2,5.7,10.2,5.7S33.3,5.5,39,6.3C44.2,7,49.7,8.6,51.5,8.8
		c4,0.4,7.4-1,9.7-1.5c2.9-0.6-0.7,0.3,5.3-1.3c0,0,18.9-3.1,11,9.4c0,0-4.8,6.9-9.8,15.1c0,0-2.1,4.9-0.9,8
		c1.2,3.1,0.2,7.4-0.5,7.4c-0.7,0,2.3,9.5-2.1,13.9c0,0,51.8-4.7,67.9,53.7c1.9,6.1,5,22.5,6.2,31.7c1.2,9.3,0.4,11.4,1.1,13.8
		c1.2,4.7,9,14.4-3.3,18.7c-2.8,1.4-4.1,4.9-4,6.6c0.1,1.7,1.6,6.6-6.8,8.5c-8.3,1.9-40.2,7.6-45.7,4c-7.1-1.2-11.9-9.2,1.9-16.8
		c0,0-1.4-2.8-3.1-3.6c-1.7-0.9-13,0.3-14.7-2.1c-1.7-2.4-7.4-9.7,7.4-12.8c-2.1-3.6-6.1-11.3-6.6-12.3c0,0-21.5,34.8-25.3,39.5
		c0,0-4.3,1.7-5.7,4.3c-1.4,2.6-11.8,8.8-18.9,3.3c-7.2-2.3-7.2-2.3-9.4-6.2c0,0-3.9-6.1,7.5-10c1.4-0.5,2.9,0,3.9-0.3
		c7.2-2.5,4.6-2.8,6-4.5c0,0-17.7,3.6-19.3-3.1c-4-1.7-4.7-6.9-1.4-9c0,0,0.5-5.5,7.3-4.3c6.8,1.2,15.6-5.2,15.2-19.7
		c0.7-11.4,0.9-7.9,0.2-10.2C24.1,126.2-7.3,111.9,8,67.9c0,0,1.2-4.7,0.2-6.9C7.1,58.7-4.3,41.9,5.4,21.1z"/>
</g>
</svg>
