<?xml version="1.0" encoding="UTF-8" standalone="no"?>
<!-- Created with Inkscape (http://www.inkscape.org/) -->

<svg
   width="119.99999mm"
   height="78.361153mm"
   viewBox="0 0 119.99999 78.36115"
   version="1.1"
   id="svg5"
   inkscape:version="1.1.1 (3bf5ae0d25, 2021-09-20)"
   sodipodi:docname="DraftHorse.svg"
   xmlns:inkscape="http://www.inkscape.org/namespaces/inkscape"
   xmlns:sodipodi="http://sodipodi.sourceforge.net/DTD/sodipodi-0.dtd"
   xmlns="http://www.w3.org/2000/svg"
   xmlns:svg="http://www.w3.org/2000/svg">
  <sodipodi:namedview
     id="namedview7"
     pagecolor="#ffffff"
     bordercolor="#666666"
     borderopacity="1.0"
     inkscape:pageshadow="2"
     inkscape:pageopacity="0.0"
     inkscape:pagecheckerboard="0"
     inkscape:document-units="mm"
     showgrid="false"
     inkscape:zoom="0.7500982"
     inkscape:cx="6.6657939"
     inkscape:cy="268.63149"
     inkscape:window-width="1920"
     inkscape:window-height="1027"
     inkscape:window-x="1192"
     inkscape:window-y="641"
     inkscape:window-maximized="1"
     inkscape:current-layer="layer1" />
  <defs
     id="defs2" />
  <g
     inkscape:label="Layer 1"
     inkscape:groupmode="layer"
     id="layer1"
     transform="translate(-12.713212,-77.460294)">
    <path
       style="fill:#000000;stroke-width:0.200547"
       d="m 56.166014,154.32113 c -0.773195,-3.301 -2.237912,-1.49813 -3.532455,-0.83009 -0.602484,-2.36611 -0.829223,-3.4486 -2.174471,-3.21207 -0.154539,-4.0677 -3.159094,-2.40495 -2.825482,-7.07994 -3.454755,-3.51786 0.858907,-8.62043 0.05576,-13.00585 -1.453234,-2.00294 -6.090158,3.42421 -8.928719,4.14603 -4.809377,1.78767 -9.450016,5.95331 -9.640929,11.37114 0.651928,5.50611 -4.880897,8.80256 -9.636348,9.39706 -5.74137,1.47808 -4.033947,-7.43477 -2.501899,-10.58739 1.322547,-2.02251 3.741728,-3.6 2.977651,-4.99428 3.830116,-0.62299 2.91458,-3.3803 5.217541,-5.3407 -2.02649,-1.21309 2.608681,-2.18235 2.107907,-3.54248 4.200337,-1.23072 11.23059,-4.33094 8.217994,-9.72291 -2.740906,-3.73788 -0.484563,-10.13487 -1.205578,-12.57023 -5.667853,0.96325 -2.836979,7.12544 -5.094118,9.9049 0.636905,2.18667 -1.71304,10.13777 -2.1099,7.04888 -2.452201,2.42379 -4.979565,5.7257 -8.841259,5.21237 4.388049,-3.67647 -4.138014,-0.74513 -5.255774,-4.02193 5.50262,0.0577 -3.9346487,-3.55723 1.437414,-3.4757 3.61838,-1.20251 8.192597,-3.94261 8.680662,-8.21327 -0.454591,-6.04338 5.624862,-10.07259 10.706925,-11.71367 5.340939,0.55088 9.4755,-2.77351 13.945434,-5.322785 1.692883,-1.059562 3.489958,-1.776112 5.51125,-1.441747 5.060636,-0.419204 9.750586,1.949096 14.798319,1.882258 3.577739,0.68191 11.379939,-0.205684 11.80138,-3.229372 -0.754153,-1.975001 6.947211,-4.082579 7.03481,-5.537316 -5.512999,0.748123 1.018162,-1.119981 2.856571,-2.483754 2.221435,-1.350631 5.485613,-1.733021 2.788368,-3.354798 3.099713,-3.010952 9.794272,-3.581503 12.087782,-4.838377 0.41386,-3.427794 7.7049,1.070233 10.03128,0.305104 -1.43816,-4.157039 6.03324,2.270905 8.4913,1.552597 2.60957,-1.674572 6.39064,-2.168749 3.53609,1.749719 2.5653,1.785666 7.84204,-2.913589 5.36434,2.505308 -3.51195,1.384548 2.58403,6.51106 -0.96949,6.355973 0.27429,1.688143 1.12257,4.62965 -1.00293,1.791718 -0.0669,2.68417 -3.24352,1.88955 -2.47892,5.821335 -0.6198,4.475317 1.09469,9.979947 -3.12982,13.128527 -2.60877,1.62087 -9.13173,-0.60997 -7.15046,-4.68722 -1.3918,-1.93871 -6.61043,-7.333925 -6.78483,-1.67123 -3.49727,5.18897 0.70135,12.12419 -4.23041,16.50999 -2.23798,2.64304 1.99447,6.51451 1.71314,9.6669 4.56128,3.32395 1.33215,9.74268 6.53777,12.60207 -2.51384,0.66247 1.42862,3.64141 -0.21707,3.93054 2.87069,4.18308 7.6e-4,8.91642 -5.07351,6.81795 -3.45567,-0.86368 -7.52324,-3.87211 -5.82083,-7.06352 -4.362076,1.43154 2.49493,-9.06067 -1.84269,-6.04955 1.32385,-3.62908 1.62472,-7.17905 -2.523798,-9.14536 -3.253005,-1.92236 0.203205,6.59275 -3.034747,8.14489 -2.964574,3.48711 -4.2809,8.25447 -7.728181,11.22872 -1.136019,1.00358 -3.810244,2.25993 -2.348646,-0.27606 -1.963209,1.20701 -5.187829,2.76071 -7.124602,1.38504 -2.656212,-3.72711 1.420465,-14.32116 6.910376,-11.23717 3.921757,-0.35544 1.530854,-1.34464 0.420728,-2.14537 4.484514,-0.1365 1.689278,-6.91656 3.486757,-10.52455 -3.075223,-2.0568 -9.593112,-0.12444 -13.876256,-1.3006 -5.773266,-0.32762 -10.76205,-3.48073 -16.160456,-5.15226 -3.099177,3.40498 -2.255583,9.59013 -3.911531,14.08888 -0.290711,4.98172 2.135035,10.21404 7.345652,11.43558 4.23502,0.74954 8.74166,8.35125 1.398143,7.12056 -2.470837,-0.1035 -5.51127,0.51874 -7.726802,-0.13704 -0.192811,-0.39848 -0.385621,-0.79697 -0.578433,-1.19545 z"
       id="path39" />
  </g>
</svg>
