<?xml version="1.0" encoding="UTF-8" standalone="no"?>
<!-- Created with Inkscape (http://www.inkscape.org/) -->

<svg
   width="158.31709mm"
   height="103.38258mm"
   viewBox="0 0 158.31709 103.38258"
   version="1.1"
   id="svg5"
   inkscape:version="1.1.1 (3bf5ae0d25, 2021-09-20)"
   sodipodi:docname="DraftHorse.svg"
   xmlns:inkscape="http://www.inkscape.org/namespaces/inkscape"
   xmlns:sodipodi="http://sodipodi.sourceforge.net/DTD/sodipodi-0.dtd"
   xmlns="http://www.w3.org/2000/svg"
   xmlns:svg="http://www.w3.org/2000/svg">
  <sodipodi:namedview
     id="namedview7"
     pagecolor="#ffffff"
     bordercolor="#666666"
     borderopacity="1.0"
     inkscape:pageshadow="2"
     inkscape:pageopacity="0.0"
     inkscape:pagecheckerboard="0"
     inkscape:document-units="mm"
     showgrid="false"
     inkscape:zoom="0.7500982"
     inkscape:cx="6.6657939"
     inkscape:cy="268.63149"
     inkscape:window-width="1920"
     inkscape:window-height="1027"
     inkscape:window-x="1192"
     inkscape:window-y="641"
     inkscape:window-maximized="1"
     inkscape:current-layer="layer1" />
  <defs
     id="defs2" />
  <g
     inkscape:label="Layer 1"
     inkscape:groupmode="layer"
     id="layer1"
     transform="translate(-12.713209,-77.460294)">
    <path
       style="fill:#000000;stroke-width:0.264583"
       d="m 70.040893,178.8635 c -1.020083,-4.35504 -2.952498,-1.9765 -4.660401,-1.09514 -0.794862,-3.12164 -1.094001,-4.54977 -2.868799,-4.23772 -0.203885,-5.36656 -4.167822,-3.17287 -3.727684,-9.34063 -4.55789,-4.64115 1.133164,-11.37301 0.07356,-17.15873 -1.917265,-2.64251 -8.034801,4.51758 -11.779741,5.46989 -6.345054,2.35849 -12.467492,7.85425 -12.719365,15.00205 0.860094,7.26426 -6.439412,11.6133 -12.713323,12.39762 -7.574642,1.95005 -5.322023,-9.80876 -3.300778,-13.96803 1.744848,-2.66832 4.936496,-4.74952 3.928443,-6.58901 5.053107,-0.82191 3.845231,-4.45966 6.883549,-7.04603 -2.673567,-1.60044 3.441657,-2.87919 2.780981,-4.67363 5.541543,-1.6237 14.816621,-5.71385 10.842075,-12.82752 -3.616102,-4.93142 -0.639288,-13.37102 -1.59053,-16.58402 -7.477651,1.27082 -3.742853,9.40066 -6.720717,13.06762 0.840275,2.8849 -2.260029,13.37486 -2.78361,9.29966 -3.235212,3.19773 -6.569586,7.55397 -11.664354,6.87672 5.789193,-4.8504 -5.45932,-0.98305 -6.933991,-5.30617 7.259657,0.0761 -5.191018,-4.69308 1.896393,-4.58551 4.773762,-1.58649 10.808569,-5.20153 11.452478,-10.83585 -0.599747,-7.97308 7.420932,-13.28886 14.125744,-15.45395 7.04635,0.72678 12.501114,-3.65912 18.398338,-7.0224 2.233436,-1.39789 4.604334,-2.34324 7.271043,-1.90211 6.676544,-0.55306 12.864037,2.57146 19.523558,2.48328 4.720144,0.89965 15.013658,-0.27136 15.569668,-4.26054 -0.99496,-2.605636 9.16552,-5.386184 9.28109,-7.305432 -7.27335,0.987006 1.34327,-1.4776 3.7687,-3.276839 2.93076,-1.7819 7.23722,-2.28639 3.67872,-4.426016 4.08948,-3.972376 12.92167,-4.725109 15.94753,-6.383314 0.546,-4.522321 10.16514,1.411968 13.23435,0.402526 -1.89737,-5.48442 7.95972,2.996026 11.20266,2.048355 3.44283,-2.209278 8.43122,-2.86125 4.66519,2.308421 3.38443,2.355845 10.34608,-3.843925 7.07723,3.305275 -4.63336,1.826647 3.40913,8.590102 -1.27907,8.385494 0.36188,2.227183 1.48102,6.10794 -1.32317,2.36383 -0.0883,3.54125 -4.2792,2.4929 -3.27046,7.68014 -0.81771,5.90433 1.44424,13.16664 -4.1292,17.32059 -3.44177,2.13843 -12.04757,-0.80474 -9.43367,-6.1839 -1.83621,-2.55775 -8.7212,-9.67571 -8.95129,-2.20486 -4.61397,6.84585 0.9253,15.99555 -5.58121,21.78177 -2.95259,3.48699 2.63132,8.59466 2.26016,12.75364 6.01774,4.38531 1.75751,12.8536 8.62534,16.62602 -3.31654,0.874 1.88479,4.80415 -0.28638,5.1856 3.78732,5.51878 0.001,11.76351 -6.69354,8.99499 -4.55909,-1.13947 -9.92547,-5.10852 -7.67947,-9.31897 -5.75493,1.88864 3.29158,-11.95383 -2.43107,-7.98123 1.74656,-4.78788 2.1435,-9.47139 -3.32968,-12.06556 -4.29172,-2.53619 0.26809,8.69788 -4.00377,10.74563 -3.91119,4.60058 -5.64783,10.8902 -10.19586,14.81416 -1.49876,1.32402 -5.02689,2.98154 -3.09859,-0.36422 -2.59008,1.59242 -6.84435,3.64224 -9.399553,1.8273 -3.504364,-4.91721 1.874033,-18.89404 9.116923,-14.8253 5.17401,-0.46894 2.01967,-1.774 0.55507,-2.8304 5.91646,-0.18009 2.22868,-9.12509 4.60011,-13.88514 -4.05717,-2.71355 -12.65628,-0.16418 -18.307071,-1.7159 -7.616723,-0.43223 -14.198471,-4.59216 -21.320638,-6.79742 -4.088772,4.49222 -2.975811,12.65235 -5.160519,18.58759 -0.383537,6.57243 2.816772,13.47547 9.691186,15.08706 5.587301,0.98888 11.532953,11.01788 1.844583,9.39422 -3.259797,-0.13654 -7.271069,0.68438 -10.19404,-0.18079 -0.254377,-0.52572 -0.508754,-1.05145 -0.763131,-1.57717 z"
       id="path39" />
  </g>
</svg>
