<?xml version="1.0" encoding="utf-8"?>
<!-- Generator: Adobe Illustrator 24.0.1, SVG Export Plug-In . SVG Version: 6.00 Build 0)  -->
<svg version="1.1" id="Layer_1" xmlns="http://www.w3.org/2000/svg" xmlns:xlink="http://www.w3.org/1999/xlink" x="0px" y="0px"
	 viewBox="0 0 252.8 169.8" style="enable-background:new 0 0 252.8 169.8;" xml:space="preserve">
<path d="M193.2,106.8c0.9,11.3,2.6,22.2,2.2,33.1c-0.3,7-3.3,14.1-5.8,20.8c-1.5,4-12,6.4-15.4,3.9c-2.4-1.7-2.2-3.7,0.1-5.7
	c7.5-6.7,9.5-25.4,3.5-33.5c-1.2-1.6-3.1-3.2-5-3.9c-8-2.9-13.2-8.6-17.5-15.6c-0.8-1.3-2.9-2.6-4.3-2.5
	c-12.8,0.6-25.6,1.8-38.4,2.2c-4.4,0.1-5.8,1.5-5.8,5.7c-0.1,9.7-0.6,19.3-0.8,29c-0.2,8.6-4.4,15.6-9.5,22.1
	c-2.3,3-14.5,4.5-17.4,2.4c-0.6-0.5-1.3-1.9-1-2.4c0.8-1.5,1.8-3.2,3.2-4.2c2.7-2,7-2.9,8.2-5.4c1.9-3.9,3-9,2.4-13.3
	c-1.5-10.7-4.1-21.2-6.6-31.7c-0.4-1.7-1.9-3.5-3.5-4.4C74.5,99.1,69,93.6,65,86.1C60.3,77.3,51.8,72,42.7,69.4
	c-5.2-1.5-11.8,0.9-17.4,2.7c-5.6,1.7-10.1,0.8-14.4-2.6C8,67.2,7.6,64.5,10,61.7c1.4-1.6,2.9-3.2,4.6-4.5c4.5-3.6,7.6-7.6,8.8-13.8
	c0.8-4.1,4.8-7.8,7.8-11.2c1.8-2.1,2.6-3.5,1.6-6.4c-2.1-6.3-3.5-12.8-5.2-19.7c6.7-1,12.1,1.4,15.1,5.7
	c5.7,8.4,14.1,10.8,22.7,14.2C77,30.4,88.1,36.1,99.3,41.7c8.5,4.3,17.5,4.9,26.7,4.6c14.8-0.6,29.6-1.6,44.3-1.4
	c13.9,0.2,22.3,8.8,27.3,21.3c0.9,2.3,2.9,4.7,5.1,6c29.5,17,43.2,43.2,44.7,76.5c0,0.5-0.1,1-0.2,1.5c0,0.1-0.2,0.2-0.6,0.6
	c-3-2.1-5.9-4.5-9.2-6.3c-3.2-1.8-6.5-3.8-10-4.4c-10.9-1.8-18.2-8.6-24.1-17.1C199.7,117.9,196.6,112.4,193.2,106.8z"/>
</svg>
