<?xml version="1.0" encoding="utf-8"?>
<!-- Generator: Adobe Illustrator 24.0.0, SVG Export Plug-In . SVG Version: 6.00 Build 0)  -->
<svg version="1.1" id="Layer_1" xmlns="http://www.w3.org/2000/svg" xmlns:xlink="http://www.w3.org/1999/xlink" x="0px" y="0px"
	 viewBox="0 0 295.3 234.4" style="enable-background:new 0 0 295.3 234.4;" xml:space="preserve">
<path d="M237.7,81.4c0,0,19.8,10.9,30.5,13.7c6.8,1.8,16.2,1.7,19.4-6.6c3.6-9-5.2-13.7-10.4-18.9c-8.9-8.8-10.9-32.7-23.1-36.7
	l1.7-22.4c0.2-2.7-1.2-3.4-3.2-1.5l-8.5,8.1c-41.6-26.8-50.6,29.3-68.7,51.4c-4,4.9-9,9.1-14.9,11.7c-27.6,12-50.8-4.9-79,2.8
	c-6.1,1.7-16.5,6.2-22.8,3.7c-5-2-11.5-13.8-28.1-10C14.1,80.6,12.4,109,14.8,125c2.7,18.2-1.9,24.1-9.8,39.9
	c19.7,0.6,31.6-20,30.9-38.5c-0.2-6.1,0.1-13.7,3.6-18.9c5.1-7.6,10.8-3.6,11.7,3.8c0.6,4.7,2.9,76.2,2.9,76.2v19.4
	c0,1.6,0.6,4.1,1.2,5.5l3.3,7c0.7,1.4,2.5,2.6,4.1,2.6l18,0c1.6,0,2.3-1.2,1.7-2.6l-3.3-7.1c-0.7-1.4-1.2-3.9-1.2-5.5v-16.4
	c0-1.6,0.8-3.9,1.7-5.2l22.8-30.2h71.9l14.8,19.8c1,1.3,1.7,3.6,1.7,5.2v26.8c0,1.6,0.6,4.1,1.2,5.5l3.3,7.1
	c0.7,1.4,2.5,2.6,4.1,2.6l17.9,0c1.6,0,2.3-1.2,1.7-2.6l-3.3-7.1c-0.7-1.4-1.2-3.9-1.2-5.5v-29.7
	C214.7,147.8,232.8,111.6,237.7,81.4z"/>
</svg>
