<?xml version="1.0" encoding="utf-8"?>
<!-- Generator: Adobe Illustrator 24.0.0, SVG Export Plug-In . SVG Version: 6.00 Build 0)  -->
<svg version="1.1" id="Layer_1" xmlns="http://www.w3.org/2000/svg" xmlns:xlink="http://www.w3.org/1999/xlink" x="0px" y="0px"
	 viewBox="0 0 286.8 243.2" style="enable-background:new 0 0 286.8 243.2;" xml:space="preserve">
<path d="M34,186.6c-12.6,2.9-30.7-8.9-30.7-8.9c16.1-4.5,29.2-21.2,29.2-21.2c-13.3,5.7-28.9-3.7-28.9-3.7
	c22.9-7.9,33.7-23.5,33.7-23.5c-13.9,4-22.9-3.7-22.9-3.7c15.3-5.4,31.4-20.1,31.4-20.1c-7.6,1.4-18.7-3.7-18.7-3.7
	c13-16.4,37.1-19,37.1-19C53.8,76.1,41.6,75,41.6,75c16.7-13.6,37.6-13.9,37.6-13.9c-15.3-2-30.3-15.9-30.3-15.9s11,1.4,21.8-1.4
	c10.8-2.8,24.1-0.3,24.1-0.3C82.7,42,70.6,22.4,70.6,22.4s15.1,3.4,45.7-0.4c30.6-3.8,52.1,14.2,52.1,14.2
	c4-16.4,16.8-29.1,16.8-29.1c2.8,11.1,10.8,17.4,10.8,17.4c3.6-6.2,14.2-11.9,14.2-11.9c-5.3,12.3-0.2,37-0.2,37
	c24.4,12.4,17.6,34.3,47.7,62.6c24.3,22.8,20.2,35.7,9.2,46c-19.1,18-22.4,7-28.8,3.2c-29.7-17.5-35.9-3.6-62.7-13.3
	c-34.4-12.5-51.1,8.6,7.6,79.6c0,0-83,21.9-144.2-16.6L34,186.6z"/>
</svg>
