<?xml version="1.0" encoding="utf-8"?>
<!-- Generator: Adobe Illustrator 24.0.0, SVG Export Plug-In . SVG Version: 6.00 Build 0)  -->
<svg version="1.1" id="Layer_1" xmlns="http://www.w3.org/2000/svg" xmlns:xlink="http://www.w3.org/1999/xlink" x="0px" y="0px"
	 viewBox="0 0 288.7 226" style="enable-background:new 0 0 288.7 226;" xml:space="preserve">
<g>
	<g>
		<g>
			<path d="M283,125.9c-2.6,3.7-6.9,5.9-11.4,5.9c-6.9,0-12.7-4.9-13.8-11.7c-2.9-18.6-8.4-33.3-15.1-40.5l-1.8-0.7
				c4.3,10.1,9.1,25.9,4.5,38.2c2.8,5.2,11.7,20.6,19.9,27.5c0.9,0.7,1.4,1.8,1.6,2.9c0.9,10.3,4.6,39.1,10.7,48.5
				c0.9,1.5,0.9,3.4-0.1,4.8l-4.1,5.7l-2.4,7.9c-0.6,1.8-2.2,3-4.1,3h-19.3c-1.6,0-3-0.9-3.8-2.2c-0.7-1.4-0.6-3.1,0.2-4.4
				c0.1-0.1,6.4-9.9,3.1-21.4c-0.1-0.4-0.2-0.8-0.2-1.3c0-1.1-0.2-27.4-28.9-45.7c-0.2-0.1-0.3-0.3-0.5-0.4c-1-0.9-4.8-4.2-7.8-8.2
				c-3.4,4.3-7.3,12.3-2.7,23.6c1.1,1.3,2.8,4.2,2.2,8c-0.6,4.5-4.2,8.5-10.7,11.9c-2.2,3-10.6,14.8-14.3,26.8
				c-0.1,0.2-0.2,0.5-0.3,0.6c-0.6,1.3-1.9,2.6-3.9,3.5c-0.2,0.8-0.4,1.6-0.4,2.2c0.9,1.1,1.2,2.7,0.7,4.1c-0.6,1.7-2.2,2.8-4.1,2.8
				h-16.9c-3.5,0-6.5-1.8-8.2-4.7c-1.7-3-1.7-6.5,0-9.5c5-8.7,13.6-22.4,26-38c0.6-1.7,2.9-8.2-0.3-10.6c-0.6-0.5-1.2-1.1-1.5-1.9
				c-1.9-4.7-5.5-14.3-6.7-21.3c-9,1.7-28.8,4.6-47.8,1.4c2.4,13.4,8.6,44.8,15.3,59.2c0.8,1,1.9,3.1,1.6,6
				c-0.4,3.5-2.8,6.9-7.2,10.1c0,1.3,0.1,2.4,0.3,2.8c0.9,1.3,0.9,3,0.2,4.4c-0.7,1.4-2.2,2.2-3.8,2.2h-17.4c-1.9,0-3.6-1.3-4.1-3.1
				c-0.4-1.4-3.6-13.3,1.2-20.6c-2.3-14.8-10.1-48.8-23.8-59.9c-4.8,2.4-16,7-32.4,7.9c0,1.7,0.5,5,2.5,11.1l4.9,9.5
				c0.2,0.3,0.3,0.7,0.4,1.1l1.2,5.7h3c2.4,0,4.3,1.9,4.3,4.3v15.5c0,2.3-1.7,4.1-4,4.3c-0.3,0-26.8,1.8-35.1-36.2
				c-1.9-4.3-11.3-27.9,0.8-36.9c0.2-0.1,0.3-0.2,0.4-0.3c0.8-0.4,16.7-9.5,31.8-12.6c-2.5-6.7-5.7-18.9-3.3-33.5
				c0,0,0.1-1.2,0.1-3.1c0-3.9-0.6-10.9-4.1-16.7l-3,1.3c-0.2,3.2-0.9,8.3-3.3,13v8.5c0,0.4,0,0.8-0.2,1.2c-0.6,2.2-3.2,6-9.1,6.5
				c-3.2,1.6-8.8,3-14.1-0.2c-0.3-0.2-0.6-0.5-0.9-0.7l-4.9-5.3c-0.7-0.8-1.1-1.7-1.2-2.7l-2.7-54.2L3.8,13.5
				c-1.3-1-1.9-2.6-1.6-4.2c0.3-1.6,1.5-2.9,3.1-3.4C8.2,5.1,22,1.7,30.4,5.5c7.1-1.3,33.4-3.7,60.4,24.9c0.2,0.2,0.3,0.4,0.5,0.6
				c0.9,1.3,21.8,32.9,68.5,20.8c1.4-0.5,40.2-12.5,69.3,5h11.3c20.5,0,37.3,16.5,37.7,36.9l6.9,19.5
				C286.3,117.5,285.7,122.2,283,125.9z"/>
		</g>
	</g>
</g>
</svg>
