<?xml version="1.0" encoding="utf-8"?>
<!-- Generator: Adobe Illustrator 24.0.1, SVG Export Plug-In . SVG Version: 6.00 Build 0)  -->
<svg version="1.1"
	 id="Layer_1" xmlns:cc="http://creativecommons.org/ns#" xmlns:dc="http://purl.org/dc/elements/1.1/" xmlns:inkscape="http://www.inkscape.org/namespaces/inkscape" xmlns:rdf="http://www.w3.org/1999/02/22-rdf-syntax-ns#" xmlns:sodipodi="http://sodipodi.sourceforge.net/DTD/sodipodi-0.dtd" xmlns:svg="http://www.w3.org/2000/svg"
	 xmlns="http://www.w3.org/2000/svg" xmlns:xlink="http://www.w3.org/1999/xlink" x="0px" y="0px" viewBox="0 0 349.8 234.4"
	 style="enable-background:new 0 0 349.8 234.4;" xml:space="preserve">
<path d="M342.5,14.5c-1,1.2-1.8,3.2-2.7,4.6c3.9-1,6.2,0.9,5.9,3.8c-1.6,5.7-5,10.7-9,15.8c0.9,5.3,0.3,10.3-0.9,15
	c-0.7,7.1-0.7,14.7-1,21.1c-0.2,6-0.6,11.3-3.7,15.5c-2.5,3.7-6.3,6.1-10.2,6.6c-5.9-0.1-12.7-2.5-14.4-8.6
	c-0.7-2.6-0.8-5.8-0.6-9.3c-4.1-5.9-7.6-12.5-10.3-20.8c-7.3,3.5-12.2,10.9-14.7,18.3c0.6,19.8-1.2,35.8-10.8,53.7l9.3,5.3
	c6.9,1.9,13.7,4,18.9,7.8c5.3,3.9,8.6,10.2,7.5,18.1c-1.1,5.7-2.1,12.8-3,18.3c-0.9,5.5-2,11.9-4.7,16.4c-2.7,4.1-7.6,7.9-10.8,11.2
	c-2.6,4.1-5.6,7.7-8.6,10.1c-3.5,3.1-7.5,4.2-10.8,2.5c-3.4-2.1-3.8-5.7-4.2-9c0-3.2,0.5-6.1,1.8-8.6c1.3-2.2,3.4-3.9,5.1-5.4
	c-3.9,1.8-7.8,3.1-11.9,4.6c-2.2,2.6-4.7,5.1-7.4,6.9c-3.1,2-6.8,3.4-10.5,1.6c-4.3-2.8-3.1-6.9-2-11c1.2-3.1,2.8-6.1,4.5-8.9
	c1.8-2.6,4.4-3.5,6.8-4.3c2-0.7,3.8-1.1,5.4-1.7c2.2-3.8,4.4-7.5,6.6-11.3c1.5-2.8,3.8-7.6,2.2-15.6c-10.4-3.4-24.5-8.5-33.3-15
	c-21.3,7.7-45.7,8.3-69.2-3.9c-13,10.3-29.5,17.7-42.2,23.4l-2.1,3.5c5.9,8.1,9.1,17.1,11.6,25.7c4.2,2.4,8,4.6,10.9,7.9
	c3.3,3.7,5.2,8.6,5.8,15.7c0.2,2-1.7,4-3.8,3.8l-4.3-0.3c-0.1,3.6-0.9,7.1-3.2,9.7c-0.4,0.5-1,0.9-1.7,1.1
	c-4.1,1.2-8.2-0.1-11.7-2.2c-3.5-2-6.6-4.9-8.2-8.6c-0.3-0.7-0.3-1.4-0.2-2.1l1.8-8.6l-4-2.3c-0.9-0.5-1.5-1.4-1.7-2.4
	c-3.3-15.3-7.7-28.5-11.5-34.6c-6.6-3.7-10.6-9.7-9.3-16c2-5.9,7.1-9,11-12.1c4.6-5.8,9-13.8,10-16.8c-3.1-11.5-6.3-21.6-7.1-32.1
	c-0.6-9.1,1.7-18.8,6.7-29.3c-1.8,0.1-3.4-1.3-5.5,0.3C96.6,73.2,90,81.6,83,87.1c-7.4,5.8-15.2,8.5-23.4,8.2
	C43.2,94.6,26.5,82.7,6.7,63c-1.1-1.1-1.4-2.9-0.7-4.3c0.8-1.4,2.5-2.1,4-1.7c12.7,3.1,22.6,5.6,30.9,6.4c4.9,0.5,9.2,0.2,13.5-0.6
	c-4.3-1.8-9-4.2-13.5-9.4c-2-2.2,0.6-6.5,3.5-5.8c17,3.9,29.2-2.6,42.7-7.6c13.1-4.9,27.9-7.5,45.7,3.9c27.3-6.4,52.3,5.3,76.1,14.7
	c10-16.5,18.9-25,32.4-30.4c-2.6-0.7-5.4-1.4-8.4-2.4c-2.7-0.9-2.9-5.4-0.3-6.6c12.6-5.4,24.3-6.2,34.8-6.7l-2.1-1.2
	c-2.6-1.4-1.8-6.2,1.2-6.6c11.6-1.8,21-3.1,30.2-1.7c8.6,1.3,17,5.3,26.3,12.3c6.1-3.7,11.2-5.5,15.6-6.7
	C342.5,8.6,344.3,11,342.5,14.5L342.5,14.5z"/>
<path d="M205.5,125.7c-0.6-0.1-1.2-0.2-1.7-0.4c0.2,2.4-0.6,4-1,4.8c-0.7,1.2-1.4,2.4-2.1,3.6c-0.1,0.2-0.3,0.3-0.5,0.4
	c-0.7,0.3-1.4,0.4-1.9,0.6c-0.6,0.2-0.9,0.4-0.9,0.4c-0.5,0.9-1.6,2.4-1.2,2.6c0.6,0.3,1.8-1.2,2.5-2c0.1-0.1,0.2-0.2,0.4-0.3
	c1.4-0.5,2.7-1,3.9-1.7C203.6,132.5,203.8,130.1,205.5,125.7L205.5,125.7z"/>
<path d="M207.2,126.8c-1.5,4.1-1.5,6.2-2.7,8.1c-0.1,0.3-0.4,0.4-0.5,0.6c0.6-0.3,1.3-0.6,1.8-0.8c1-2.1,1.8-3.9,2-5.3
	C207.8,128.3,207.7,127.4,207.2,126.8L207.2,126.8z"/>
</svg>
