<?xml version="1.0" encoding="utf-8"?>
<!-- Generator: Adobe Illustrator 19.1.1, SVG Export Plug-In . SVG Version: 6.00 Build 0)  -->
<svg version="1.1" id="Layer_1" xmlns="http://www.w3.org/2000/svg" xmlns:xlink="http://www.w3.org/1999/xlink" x="0px" y="0px"
	 viewBox="0 0 612 792" style="enable-background:new 0 0 612 792;" xml:space="preserve">
<path d="M180.7,569.1c-9,0-16.7-2.5-22.4-7.5c-6.7-5.8-10.6-14.7-11.4-25.7c-0.7-10.4-1.4-18.9-2.1-26.9c-0.8-8.2,1.3-14.7,6.4-20.5
	c10.3-11.4,16.2-22.1,18.6-33.6c0.8-3.6,0.6-7-0.1-10.6c-0.1,7.4-0.2,15-5.6,21.6c-6.1,7.4-14,12.9-26.4,18.3l-2.5,1.1l0.5-2.6
	c0.2-1,0.4-1.8,0.5-2.5c0.3-1.2,0.4-2,0.5-2.8c0.2-1.6,0.4-3.1,0.6-4.7c0.5-3.5,1.1-7.1,0.8-10.5c-1.3-19.5-1.6-42.4,5-65.1
	c10.4-35.6,33.5-57,70.7-65.4c16.2-3.6,32.6-3.2,48.6-2.8c2.5,0.1,4.9,0.1,7.4,0.2c10.7,0.2,20.5-1.2,29.9-4.3
	c4.8-1.6,10-1.9,15.1-2.2c2.9-0.2,6-0.4,8.9-0.8c2.2-0.3,4.4-1.3,6.7-2.2c0.9-0.4,1.9-0.8,2.8-1.1c0.2-0.1,0.5-0.3,0.8-0.5
	c0.5-0.3,1-0.7,1.7-0.9c8.4-2.2,14.8-7.4,21.7-12.9c2.1-1.7,4.3-3.4,6.5-5.1c-1.9-0.5-3.7-0.9-5.4-1.7l-0.5-0.2
	c-3.5-1.8-7.1-3.6-10-6.3c-2-1.9-2.9-4.2-2.3-6.3c0.6-2.1,2.6-3.7,5.6-4.3c3.9-0.8,8-1.2,11.8-1.7c1.1-0.1,2.3-0.2,3.4-0.4
	c10.1-1.2,19.3-5.7,29.1-14.1c0.9-0.8,1.8-1.6,2.7-2.4c1.9-1.8,3.8-3.6,6.1-5c4.4-2.7,8.3-4.4,12.1-5.2c4.7-1.1,10.1-2.8,14.5-7.5
	c5.2-5.6,10.1-10.4,15-14.5c3-2.5,5.5-3.5,7.9-3c2.5,0.5,4.6,2.6,6.8,6.9c4.3,8.6,4.7,17.7,1.1,28.5c-0.2,0.7-0.3,1.5-0.3,2.7
	c0,0,0,0.1,0,0.1c0.6-0.2,1.3-0.4,1.9-0.6c2.6-0.8,5-1.5,7.4-2.2c3-0.9,5.2-0.7,6.6,0.6c1.4,1.2,1.8,3.3,1.2,6.4
	c-1,5.6-3.6,9.7-8,12.8c-4.6,3.2-9,6.4-13.2,9.9c-5.9,4.9-8.4,11.8-7.9,21.1c0.1,0.9,0.1,1.9,0.2,2.8c0.2,1.8,0.3,3.6,0.3,5.4
	c0,0.4,0.1,0.8,0.2,1.3c0.3,1.7,0.8,5-3.6,6c-0.3,0.9-0.6,3.3-0.7,4.8c-0.1,1-0.2,2-0.3,2.8c-0.1,0.4,0,1,0,1.6
	c0.2,1.7,0.4,4.9-3.7,5.5c-0.2,0.5-0.4,1.3-0.5,1.8c-0.1,0.3-0.1,0.6-0.2,0.9c-0.3,1-0.5,2-0.7,3c-0.5,2.1-0.9,4.3-1.8,6.3
	c-0.6,1.4-1.9,2.1-3.2,2.8c-0.5,0.3-0.9,0.5-1.3,0.8c-0.3,0.2-0.7,0.5-1.1,0.7c-0.4,0.2-1,0.6-1.1,0.8c-0.9,2.9-1.5,5.5-1.7,7.9
	c-0.1,1.7-0.1,3.4-0.1,5.2c0,1.5,0.1,3.1,0,4.7c-0.1,1.3-0.5,2.6-0.8,3.8c-0.2,0.5-0.3,1-0.4,1.5l-0.4,1.6l-5.5-2.2
	c-0.3,0.7-0.6,1.4-0.9,2.1c-1.1,2.3-2.2,4.7-2.3,7c-0.8,16.5-7,31.6-12.9,46.1c-1.1,2.6-2.2,5.3-3.2,7.9
	c-8.2,20.7-11.4,43.1-9.7,68.2c0.1,2,0.3,4,0.5,5.9c0.2,2.5,0.5,5,0.6,7.5c0.2,3.3,1.7,5.3,4.8,6.4c5.6,2,9.8,5.6,12.4,10.7
	c1.1,2.3,1.3,4.5,0.6,6.2c-0.5,1-1.4,2.3-3.6,2.8c-6.9,1.7-15.8,3-24.2-2c-4.7-2.8-6.1-7.6-6.9-11.9c-1-5.5-2-11-3.1-16.4
	c-2.5-13.3-5-27-7.3-40.6c-0.8-4.8-1-9.7-1.2-14.9c-1.1,3.6-2.2,7-2.9,10.5c-3.5,17.9-6,31.7-7.9,44.6c-1.6,10.8,1.3,17.5,9.6,21.7
	c3.2,1.6,5,5.9,6.5,9.3l0.2,0.4c0.8,1.7,0.4,3.1,0,3.9c-1,2-3.4,2.8-4.7,3.1c-7.6,1.7-15,1.2-22.1-1.4c-6-2.2-9.5-7.4-9.8-14.7
	c-0.1-2.8,0-5.5,0.1-8.2c0.1-3.1,0.2-6.2,0-9.3c-0.5-7.4-1.1-15-1.7-22.3c-0.8-10.3-1.7-21-2.2-31.6c-0.5-9.2-0.2-19.1,0.7-29.4
	l0.1-0.8c0.4-4.3,0.7-7.2-0.1-8c-0.8-0.9-4.3-0.6-7.9-0.4c-15.5,1.1-31-0.8-45.9-2.5c-1.7-0.2-3.3-0.4-5-0.6
	c-13.4-1.6-13.4-1.6-16.1,5.3c-0.5,1.3-1.1,2.8-1.9,4.5c-7,15.9-14.3,33-22.3,52c-6,14.3-2.7,28.6,1.8,42c0.2,0.7,1.8,1.8,4.6,2.7
	c1.4,0.5,3,0.6,4.7,0.7c0.9,0.1,1.8,0.1,2.6,0.2c7.6,0.9,12.2,5.5,12.8,12.9c0.2,2-1.8,5.5-3.9,6c-10.7,2.7-20.6,2.3-29.5-1.1
	c-2.5-1-5-3.2-7.5-6.8c-8.5-12-14.9-25.4-19.1-40c-1.3-4.5-0.6-8.5,2.3-12.9c8.6-13.3,13.1-25.9,13.9-38.6c0.1-1.7-0.1-3.3-0.3-5.1
	c0-0.4-0.1-0.8-0.1-1.2c-1.2,1.4-2.4,2.8-3.6,4.2c-3.4,3.9-6.8,7.9-10.2,11.8c-1.7,1.9-3.4,3.9-5,5.9c-4.1,4.8-8.4,9.9-13,14.4
	c-9.4,9.1-13.8,20.6-13.8,36.1c0,1.2,0,2.4,0,3.6c0,2.5,0.1,5.2-0.1,7.8c-0.3,4.2,1.1,6.2,5.2,7.4c6,1.8,14.2,5.2,17.3,14.9
	c1.1,3.5,1.1,6-0.1,7.8c-1.2,1.8-3.4,2.7-7,3C183.6,569,182.1,569.1,180.7,569.1z"/>
</svg>
