<?xml version="1.0" encoding="UTF-8" standalone="no"?>
<svg
   xmlns:slic3r="http://slic3r.org/namespaces/slic3r"
   xmlns:dc="http://purl.org/dc/elements/1.1/"
   xmlns:cc="http://creativecommons.org/ns#"
   xmlns:rdf="http://www.w3.org/1999/02/22-rdf-syntax-ns#"
   xmlns:svg="http://www.w3.org/2000/svg"
   xmlns="http://www.w3.org/2000/svg"
   xmlns:sodipodi="http://sodipodi.sourceforge.net/DTD/sodipodi-0.dtd"
   xmlns:inkscape="http://www.inkscape.org/namespaces/inkscape"
   width="67.000999"
   height="80.661998"
   version="1.1"
   id="svg4916"
   sodipodi:docname="CC-HowlingHead.svg"
   inkscape:version="0.92.4 (5da689c313, 2019-01-14)">
  <metadata
     id="metadata4922">
    <rdf:RDF>
      <cc:Work
         rdf:about="">
        <dc:format>image/svg+xml</dc:format>
        <dc:type
           rdf:resource="http://purl.org/dc/dcmitype/StillImage" />
      </cc:Work>
    </rdf:RDF>
  </metadata>
  <defs
     id="defs4920" />
  <sodipodi:namedview
     pagecolor="#ffffff"
     bordercolor="#666666"
     borderopacity="1"
     objecttolerance="10"
     gridtolerance="10"
     guidetolerance="10"
     inkscape:pageopacity="0"
     inkscape:pageshadow="2"
     inkscape:window-width="1920"
     inkscape:window-height="1147"
     id="namedview4918"
     showgrid="false"
     inkscape:zoom="6.0623346"
     inkscape:cx="7.2297555"
     inkscape:cy="46.373236"
     inkscape:window-x="1192"
     inkscape:window-y="738"
     inkscape:window-maximized="1"
     inkscape:current-layer="svg4916" />
  <!-- 
  Generated using Slic3r 1.3.0
  http://slic3r.org/
   -->
  <g
     id="layer32"
     slic3r:z="9.8e-006"
     style="fill:#000000"
     transform="rotate(-180,33.5005,40.413477)">
    <polygon
       slic3r:type="contour"
       points="49.455,2.787998 49.47946,2.816718 50.671995,4.216998 50.707148,4.245739 54.275956,7.083535 54.314,7.112999 54.652067,7.531418 54.659,7.54 54.706035,8.067185 54.707,8.077999 54.321899,8.496417 54.313999,8.504999 54.033748,9.276182 54.027999,9.292 52.646217,14.222537 52.646218,14.222537 52.635999,14.258999 51.967708,17.162449 51.953999,17.222 51.950404,17.252267 51.775,18.727997 51.77794,20.23117 51.778,20.262 51.473252,22.468739 51.467,22.514 51.470416,22.544148 51.637,24.014 52.293535,25.844455 52.307,25.882 52.309048,25.89446 52.409,26.501998 52.381564,27.117377 52.381,27.13 52.142884,28.258847 52.138,28.281996 52.208,28.678 52.462996,28.992 52.488015,29.004741 53.708,29.626 56.265544,30.500072 56.317999,30.517999 56.72,30.719 56.570076,31.817469 56.567,31.84 56.567,32.734001 56.497431,33.25825 56.496003,33.269001 56.510955,33.362215 57.239996,37.906995 58.164047,41.861883 58.183,41.942999 58.560264,44.985596 58.568,45.048 58.722819,45.580087 58.725996,45.591 58.736348,45.610356 59.240996,46.554 59.316452,47.052772 59.318,47.062999 59.422848,49.27072 59.425,49.315999 59.43342,49.347512 59.844,50.883999 59.850932,50.898832 60.189,51.622 61.542243,53.776803 61.57,53.821 62.593991,56.622539 62.614996,56.68 62.621767,56.690971 62.952,57.225996 64.596271,58.801683 64.629996,58.834 66.249775,60.641919 66.282995,60.678999 66.676916,61.368852 66.684996,61.382999 66.926056,62.140464 66.931,62.156 66.999591,62.983035 67.001,63 66.998848,63.033783 66.893996,64.681 66.577492,66.045023 66.570999,66.073 66.567604,66.078223 66.402,66.333 66.079611,66.325155 66.072999,66.324996 64.669779,65.797815 64.641,65.787004 60.334336,64.666968 60.246003,64.643996 60.236096,64.642108 59.753,64.550004 59.461997,64.617994 59.303,64.884002 59.211868,65.630679 59.21,65.645996 59.215063,65.702691 59.461996,68.466992 59.469895,68.520855 59.854999,71.146999 59.856708,71.174656 59.94,72.522992 59.936824,72.550623 59.781996,73.897992 59.767828,73.962727 59.076999,77.119 58.775188,78.064607 58.768995,78.084 58.341763,78.985512 58.333,79.003999 57.758776,79.849663 57.747,79.867008 57.336419,80.310896 57.327999,80.32 56.900764,80.586527 56.891999,80.591992 56.393228,80.660591 56.383,80.662 55.758803,80.513047 55.745999,80.509992 54.764139,79.985751 54.743999,79.974999 52.819471,78.224887 52.779999,78.188991 50.95836,76.19196 50.920996,76.151 46.264503,70.792895 46.169,70.683 46.151476,70.665256 45.296999,69.799999 45.277887,69.785447 44.346,69.076008 44.316715,69.060655 42.889,68.311999 42.858672,68.29932 41.38,67.681 41.307488,67.654432 37.772,66.359 36.579459,65.726959 36.554999,65.713996 35.526104,64.898724 35.504999,64.882003 35.468644,64.842068 33.696,62.894995 31.699939,59.846523 31.658999,59.783999 31.604616,59.705925 29.693999,56.962995 29.67774,56.941492 28.884998,55.892996 28.862025,55.856599 27.742,54.082 27.730965,54.070223 27.193,53.496 25.373319,51.885035 25.335998,51.851996 24.34042,50.86132 24.32,50.841 24.298051,50.822691 23.227997,49.929999 20.950708,48.310224 20.903999,48.276999 20.781202,48.19516 14.793998,44.204999 14.427517,43.902212 14.42,43.896 14.248515,43.579491 14.244999,43.573 14.313592,43.201615 14.314998,43.194 14.678543,42.714827 14.685999,42.704999 15.417986,42.052383 15.432998,42.039 16.251217,41.534352 16.268,41.523999 16.333197,41.498856 19.512,40.272999 19.517165,40.269604 19.769,40.104 19.822999,39.961993 19.760998,39.772998 19.724079,39.717367 17.923999,37.004999 17.49676,36.158364 17.487998,36.140999 17.19403,35.217928 17.188,35.198995 17.07727,34.503268 17.074998,34.489 17.111255,34.147996 17.112,34.140999 17.11803,34.126307 17.411998,33.41 17.411998,33.027999 17.405326,33.01345 17.08,32.304 17.058393,32.281469 16.004999,31.182998 15.980659,31.163201 14.793999,30.197998 13.454474,28.919228 13.427,28.893 13.415042,28.878388 12.831999,28.166 11.060336,25.450691 11.023999,25.395 11.011599,25.353879 10.407,23.349 9.916068,22.181935 9.905999,22.157999 9.892975,22.135629 9.257998,21.044999 9.242122,21.024238 8.467999,20.012 8.436384,19.978275 6.895,18.334 4.69022,16.126279 4.644999,16.080998 4.556669,15.998415 0.25,11.972 0.074595,11.586897 0.070999,11.578999 0.069571,11.520111 0,8.649 0,0.074001 45.906448,0.001486 46.848,0 46.861588,0.022308 47.523999,1.11 49.416191,2.754273 "
       style="fill:#000000"
       id="polygon4913" />
  </g>
</svg>
