<?xml version="1.0" encoding="utf-8"?>
<!-- Generator: Adobe Illustrator 26.0.1, SVG Export Plug-In . SVG Version: 6.00 Build 0)  -->
<svg version="1.1"
	 id="svg4916" sodipodi:docname="CC-HowlingHead.svg" xmlns:cc="http://creativecommons.org/ns#" xmlns:dc="http://purl.org/dc/elements/1.1/" xmlns:inkscape="http://www.inkscape.org/namespaces/inkscape" xmlns:rdf="http://www.w3.org/1999/02/22-rdf-syntax-ns#" xmlns:slic3r="http://slic3r.org/namespaces/slic3r" xmlns:sodipodi="http://sodipodi.sourceforge.net/DTD/sodipodi-0.dtd" xmlns:svg="http://www.w3.org/2000/svg"
	 xmlns="http://www.w3.org/2000/svg" xmlns:xlink="http://www.w3.org/1999/xlink" x="0px" y="0px" viewBox="0 0 141.7 170.6"
	 style="enable-background:new 0 0 141.7 170.6;" xml:space="preserve">
<sodipodi:namedview  bordercolor="#666666" borderopacity="1" gridtolerance="10" guidetolerance="10" id="namedview4918" inkscape:current-layer="svg4916" inkscape:cx="7.2297555" inkscape:cy="46.373236" inkscape:pageopacity="0" inkscape:pageshadow="2" inkscape:window-height="1147" inkscape:window-maximized="1" inkscape:window-width="1920" inkscape:window-x="1192" inkscape:window-y="738" inkscape:zoom="6.0623346" objecttolerance="10" pagecolor="#ffffff" showgrid="false">
	</sodipodi:namedview>
<g id="layer32" transform="rotate(-180,33.5005,40.413477)" slic3r:z="9.8e-006">
	<polygon id="polygon4913" slic3r:type="contour" points="29.9,-83.9 29.9,-83.8 32.5,-80.9 32.5,-80.8 40.1,-74.8 40.2,-74.8 
		40.9,-73.9 40.9,-73.9 41,-72.7 41,-72.7 40.2,-71.8 40.2,-71.8 39.6,-70.2 39.6,-70.1 36.6,-59.7 36.6,-59.7 36.6,-59.6 
		35.2,-53.5 35.2,-53.4 35.2,-53.3 34.8,-50.2 34.8,-47 34.8,-46.9 34.2,-42.3 34.1,-42.2 34.1,-42.1 34.5,-39 35.9,-35.1 
		35.9,-35.1 35.9,-35 36.1,-33.7 36.1,-32.4 36.1,-32.4 35.6,-30 35.6,-30 35.7,-29.1 36.2,-28.5 36.3,-28.4 38.9,-27.1 44.3,-25.3 
		44.4,-25.2 45.3,-24.8 44.9,-22.5 44.9,-22.4 44.9,-20.6 44.8,-19.4 44.8,-19.4 44.8,-19.2 46.4,-9.6 48.3,-1.2 48.3,-1.1 
		49.1,5.4 49.2,5.5 49.5,6.6 49.5,6.6 49.5,6.7 50.6,8.7 50.7,9.7 50.7,9.8 51,14.4 51,14.5 51,14.6 51.9,17.8 51.9,17.9 52.6,19.4 
		55.5,24 55.5,24 57.7,30 57.7,30.1 57.7,30.1 58.4,31.3 61.9,34.6 62,34.7 65.4,38.5 65.5,38.6 66.3,40 66.3,40 66.8,41.6 
		66.9,41.7 67,43.4 67,43.5 67,43.5 66.8,47 66.1,49.9 66.1,50 66.1,50 65.7,50.5 65.1,50.5 65,50.5 62.1,49.4 62,49.4 52.9,47 
		52.7,46.9 52.7,46.9 51.7,46.7 51.1,46.9 50.7,47.5 50.5,49 50.5,49.1 50.5,49.2 51.1,55 51.1,55.1 51.9,60.7 51.9,60.8 52.1,63.6 
		52.1,63.7 51.7,66.5 51.7,66.7 50.2,73.3 49.6,75.3 49.6,75.4 48.7,77.3 48.7,77.3 47.5,79.1 47.4,79.1 46.6,80.1 46.5,80.1 
		45.6,80.7 45.6,80.7 44.6,80.8 44.5,80.8 43.2,80.5 43.2,80.5 41.1,79.4 41.1,79.4 37,75.7 36.9,75.6 33.1,71.4 33,71.3 23.1,60 
		22.9,59.7 22.9,59.7 21.1,57.8 21,57.8 19.1,56.3 19,56.3 16,54.7 15.9,54.7 12.8,53.4 12.6,53.3 5.2,50.6 2.6,49.2 2.6,49.2 
		0.4,47.5 0.4,47.4 0.3,47.4 -3.5,43.2 -7.7,36.8 -7.8,36.7 -7.9,36.5 -11.9,30.7 -12,30.6 -13.6,28.4 -13.7,28.4 -16,24.6 
		-16.1,24.6 -17.2,23.4 -21.1,20 -21.1,19.9 -23.2,17.8 -23.3,17.7 -23.3,17.7 -25.6,15.8 -30.4,12.4 -30.5,12.3 -30.8,12.1 
		-43.4,3.7 -44.2,3.1 -44.2,3.1 -44.6,2.4 -44.6,2.4 -44.5,1.6 -44.4,1.6 -43.7,0.6 -43.7,0.5 -42.1,-0.8 -42.1,-0.9 -40.4,-1.9 
		-40.3,-2 -40.2,-2 -33.5,-4.6 -33.4,-4.6 -32.9,-5 -32.8,-5.3 -32.9,-5.7 -33,-5.8 -36.8,-11.5 -37.7,-13.3 -37.7,-13.4 
		-38.4,-15.3 -38.4,-15.3 -38.6,-16.8 -38.6,-16.8 -38.5,-17.6 -38.5,-17.6 -38.5,-17.6 -37.9,-19.1 -37.9,-19.9 -37.9,-20 
		-38.6,-21.5 -38.6,-21.5 -40.9,-23.8 -40.9,-23.9 -43.4,-25.9 -46.3,-28.6 -46.3,-28.7 -46.4,-28.7 -47.6,-30.2 -51.3,-36 
		-51.4,-36.1 -51.4,-36.2 -52.7,-40.4 -53.8,-42.9 -53.8,-42.9 -53.8,-43 -55.1,-45.3 -55.2,-45.3 -56.8,-47.5 -56.9,-47.5 
		-60.1,-51 -64.8,-55.7 -64.9,-55.8 -65.1,-56 -74.2,-64.5 -74.6,-65.3 -74.6,-65.3 -74.6,-65.4 -74.7,-71.5 -74.7,-89.6 
		22.4,-89.8 24.4,-89.8 24.4,-89.8 25.8,-87.5 29.8,-84 	">
	</polygon>
</g>
</svg>
