<?xml version="1.0" encoding="UTF-8" standalone="no"?>
<!-- Created with Inkscape (http://www.inkscape.org/) -->

<svg
   width="210mm"
   height="297mm"
   viewBox="0 0 210 297"
   version="1.1"
   id="svg5"
   inkscape:version="1.1.1 (3bf5ae0d25, 2021-09-20)"
   sodipodi:docname="Husky.svg"
   xmlns:inkscape="http://www.inkscape.org/namespaces/inkscape"
   xmlns:sodipodi="http://sodipodi.sourceforge.net/DTD/sodipodi-0.dtd"
   xmlns="http://www.w3.org/2000/svg"
   xmlns:svg="http://www.w3.org/2000/svg">
  <sodipodi:namedview
     id="namedview7"
     pagecolor="#ffffff"
     bordercolor="#666666"
     borderopacity="1.0"
     inkscape:pageshadow="2"
     inkscape:pageopacity="0.0"
     inkscape:pagecheckerboard="0"
     inkscape:document-units="mm"
     showgrid="false"
     inkscape:zoom="0.7500982"
     inkscape:cx="54.65951"
     inkscape:cy="561.92642"
     inkscape:window-width="1920"
     inkscape:window-height="1027"
     inkscape:window-x="1192"
     inkscape:window-y="529"
     inkscape:window-maximized="1"
     inkscape:current-layer="layer1" />
  <defs
     id="defs2" />
  <g
     inkscape:label="Layer 1"
     inkscape:groupmode="layer"
     id="layer1">
    <path
       style="fill:#000000;stroke-width:0.400552"
       d="m 47.521292,179.47653 c -4.440279,-0.69562 -5.014522,-5.63158 -6.757612,-9.0404 -3.406825,-0.21856 -7.218881,0.83346 -10.254854,-1.06305 -2.454625,-4.11011 -1.392557,-9.33936 -2.467142,-13.90474 -0.886439,-2.83209 1.370823,-5.2245 2.152947,-7.82922 2.986253,-5.85494 0.444623,-12.36369 -2.000066,-17.89672 -1.942962,-5.68321 -0.501077,-12.07113 2.200886,-17.23188 3.587493,-3.98269 2.875492,-9.16292 2.739077,-13.885684 -0.156295,-4.136732 0.690857,-8.257035 3.227264,-12.427994 0.899134,-3.151066 2.570183,-2.397654 3.234388,-4.507867 2.600311,-0.03844 7.19848,-3.960008 9.899541,-2.437704 2.877573,-0.01655 4.310227,0.659701 6.12782,2.437311 1.805368,1.229969 3.450644,2.966001 5.102607,5.214429 0.394888,2.831271 2.936772,5.960861 1.429943,9.063436 5.396932,1.542354 11.353661,1.041228 16.379547,-1.325646 3.911149,-1.121615 8.991629,-1.188344 10.570826,-4.65094 5.591051,-1.114274 5.444603,-8.644613 6.755247,-13.273582 1.63404,-5.4063 0.364711,-11.352724 1.208716,-16.831036 3.583673,-0.564551 6.772113,9.867238 7.026313,2.399609 1.88616,-3.712432 2.64259,3.686694 4.46049,3.735191 4.79646,-1.259742 9.40226,3.806789 13.87914,0.391177 3.06996,-1.274057 7.97495,-3.271183 7.1696,2.390121 0.81016,3.031274 -4.47031,6.230075 0.76208,6.580106 1.48042,6.526005 -8.83232,6.391204 -9.49021,12.4936 2.41557,4.940064 3.19551,11.309989 -0.0148,16.122323 -4.30347,1.39635 2.11769,5.80529 -0.20978,9.67542 -0.15517,5.88319 -4.83009,10.45516 -4.69724,16.41071 -2.11916,4.57932 -4.6909,9.09632 -4.68313,14.51639 -0.8536,5.51783 -2.09527,10.94902 -1.92933,16.58001 -0.10079,3.442 -0.19467,6.88419 -0.2926,10.32627 5.71124,0.90183 6.17692,8.4762 -0.63319,6.64743 -5.36904,1.08019 -5.0814,-5.21593 -6.36509,-8.00879 -3.706626,0.12978 -9.332561,0.50577 -8.938423,-4.85129 0.2537,-5.10051 -0.04849,-10.14334 -0.964449,-15.16358 0.358929,-3.86244 3.832433,-10.58377 0.574914,-12.92798 -5.627504,0.80036 -11.151773,0.13441 -16.7117,-0.67202 -5.046549,0.65994 -11.523197,-6.31875 -15.00286,0.77892 -4.322429,5.34744 -6.585297,12.05876 -11.379532,17.08217 -3.914294,4.52687 -4.694613,11.64926 -1.729057,16.88893 0.614942,4.33731 12.045466,1.94778 7.252767,7.43382 -2.380837,1.07841 -5.08868,1.53733 -7.633103,0.76275 z"
       id="path39" />
  </g>
</svg>
