<?xml version="1.0" encoding="utf-8"?>
<!-- Generator: Adobe Illustrator 26.0.1, SVG Export Plug-In . SVG Version: 6.00 Build 0)  -->
<svg version="1.1"
	 id="svg5" sodipodi:docname="Husky.svg" xmlns:inkscape="http://www.inkscape.org/namespaces/inkscape" xmlns:sodipodi="http://sodipodi.sourceforge.net/DTD/sodipodi-0.dtd" xmlns:svg="http://www.w3.org/2000/svg"
	 xmlns="http://www.w3.org/2000/svg" xmlns:xlink="http://www.w3.org/1999/xlink" x="0px" y="0px" viewBox="0 0 292.6 340.2"
	 style="enable-background:new 0 0 292.6 340.2;" xml:space="preserve">
<sodipodi:namedview  bordercolor="#666666" borderopacity="1.0" id="namedview7" inkscape:current-layer="layer1" inkscape:cx="54.65951" inkscape:cy="561.92642" inkscape:document-units="mm" inkscape:pagecheckerboard="0" inkscape:pageopacity="0.0" inkscape:pageshadow="2" inkscape:window-height="1027" inkscape:window-maximized="1" inkscape:window-width="1920" inkscape:window-x="1192" inkscape:window-y="529" inkscape:zoom="0.7500982" pagecolor="#ffffff" showgrid="false">
	</sodipodi:namedview>
<g id="layer1" inkscape:groupmode="layer" inkscape:label="Layer 1">
	<path id="path39" d="M57.3,339.1c-12.6-2-14.2-16-19.2-25.6c-9.7-0.6-20.5,2.4-29.1-3c-7-11.7-3.9-26.5-7-39.4
		c-2.5-8,3.9-14.8,6.1-22.2c8.5-16.6,1.3-35-5.7-50.7C-3,182,1.1,163.9,8.8,149.2c10.2-11.3,8.2-26,7.8-39.4
		c-0.4-11.7,2-23.4,9.1-35.2c2.5-8.9,7.3-6.8,9.2-12.8c7.4-0.1,20.4-11.2,28.1-6.9c8.2,0,12.2,1.9,17.4,6.9
		c5.1,3.5,9.8,8.4,14.5,14.8c1.1,8,8.3,16.9,4.1,25.7c15.3,4.4,32.2,3,46.4-3.8c11.1-3.2,25.5-3.4,30-13.2
		c15.8-3.2,15.4-24.5,19.1-37.6c4.6-15.3,1-32.2,3.4-47.7c10.2-1.6,19.2,28,19.9,6.8c5.3-10.5,7.5,10.5,12.6,10.6
		c13.6-3.6,26.7,10.8,39.3,1.1c8.7-3.6,22.6-9.3,20.3,6.8c2.3,8.6-12.7,17.7,2.2,18.7c4.2,18.5-25,18.1-26.9,35.4
		c6.8,14,9.1,32.1,0,45.7c-12.2,4,6,16.5-0.6,27.4c-0.4,16.7-13.7,29.6-13.3,46.5c-6,13-13.3,25.8-13.3,41.1
		c-2.4,15.6-5.9,31-5.5,47c-0.3,9.8-0.6,19.5-0.8,29.3c16.2,2.6,17.5,24-1.8,18.8c-15.2,3.1-14.4-14.8-18-22.7
		c-10.5,0.4-26.5,1.4-25.3-13.8c0.7-14.5-0.1-28.8-2.7-43c1-10.9,10.9-30,1.6-36.6c-16,2.3-31.6,0.4-47.4-1.9
		c-14.3,1.9-32.7-17.9-42.5,2.2c-12.3,15.2-18.7,34.2-32.3,48.4c-11.1,12.8-13.3,33-4.9,47.9c1.7,12.3,34.1,5.5,20.6,21.1
		C72.2,340,64.5,341.3,57.3,339.1L57.3,339.1z"/>
</g>
</svg>
