<?xml version="1.0" encoding="UTF-8" standalone="no"?>
<!-- Created with Inkscape (http://www.inkscape.org/) -->

<svg
   width="210mm"
   height="297mm"
   viewBox="0 0 210 297"
   version="1.1"
   id="svg5"
   inkscape:version="1.1.1 (3bf5ae0d25, 2021-09-20)"
   sodipodi:docname="Husky-2.svg"
   xmlns:inkscape="http://www.inkscape.org/namespaces/inkscape"
   xmlns:sodipodi="http://sodipodi.sourceforge.net/DTD/sodipodi-0.dtd"
   xmlns="http://www.w3.org/2000/svg"
   xmlns:svg="http://www.w3.org/2000/svg">
  <sodipodi:namedview
     id="namedview7"
     pagecolor="#ffffff"
     bordercolor="#666666"
     borderopacity="1.0"
     inkscape:pageshadow="2"
     inkscape:pageopacity="0.0"
     inkscape:pagecheckerboard="0"
     inkscape:document-units="mm"
     showgrid="false"
     inkscape:zoom="0.7500982"
     inkscape:cx="397.28131"
     inkscape:cy="561.92642"
     inkscape:window-width="1920"
     inkscape:window-height="1027"
     inkscape:window-x="1192"
     inkscape:window-y="529"
     inkscape:window-maximized="1"
     inkscape:current-layer="layer1" />
  <defs
     id="defs2" />
  <g
     inkscape:label="Layer 1"
     inkscape:groupmode="layer"
     id="layer1">
    <path
       style="fill:#000000;stroke-width:0.264583"
       d="m 97.579477,210.06354 c -5.607827,-1.55524 4.510763,-5.86068 2.165361,-9.91701 0.120936,-4.96089 0.414182,-9.98046 -0.190535,-14.90826 -1.85628,6.75387 -1.83197,14.46903 -5.608976,20.5659 -3.766604,3.09263 -16.895589,1.31045 -8.852141,-3.59456 7.860298,1.42633 3.621543,-10.59444 4.256458,-15.12263 -0.977224,-9.79787 -1.998529,-19.88789 -6.694236,-28.72788 -3.176002,-6.13785 -5.226164,-12.8371 -5.107167,-19.80377 -1.239333,-4.9414 0.7282,-14.28469 -3.327308,-16.60595 -3.938985,1.17232 -10.168227,-0.26869 -12.203586,-2.35046 1.983617,-2.81489 7.569673,-4.63559 1.290997,-5.87172 -4.431119,-3.44335 -2.359693,-8.63576 3.229659,-8.45566 5.40327,-0.77807 7.181305,-7.511347 8.915377,-11.361771 -0.186881,-2.636665 -2.322138,-10.879975 2.65869,-6.401866 3.509729,3.448996 7.589835,9.72834 10.076291,1.879555 5.258886,-5.992997 5.582481,6.419834 6.931952,9.705385 2.663761,4.842377 6.798517,9.690107 7.926077,15.683337 0.18,2.44206 1.41779,4.17863 3.51765,5.3711 4.0872,3.3042 7.94093,7.3407 13.43726,8.04515 4.54333,0.96197 12.49672,2.25003 15.02939,-1.47592 -2.0015,-3.80306 -2.50567,-7.24153 -1.97546,-10.67367 1.83801,-2.82584 3.83234,-7.25147 8.15462,-7.50317 4.52676,-1.64796 11.47233,-2.72598 14.72509,0.28466 1.19121,3.88806 4.86193,8.22927 3.97837,12.26764 0.71811,2.04866 2.09974,4.15842 2.82253,7.52765 5.79717,6.50854 8.98988,14.84959 10.10901,23.41805 1.83556,6.17238 0.82921,12.49521 0.25263,18.74745 0.0186,7.69468 5.51524,14.27461 5.15626,22.08758 -0.90492,4.51943 3.10667,13.15602 -2.69166,14.50336 -3.61668,1.80463 -10.9387,-1.71063 -4.68979,-4.64057 3.42413,-5.80085 -1.56745,-12.73653 -4.10452,-18.04138 -4.06246,-6.21023 -9.05035,-11.88362 -12.13265,-18.68757 -0.34414,4.59557 -1.41645,9.42322 0.64118,13.77675 1.33983,6.4466 -0.4423,13.01353 -3.6703,18.62614 0.0725,5.28864 -15.04079,2.25121 -8.05702,-0.73691 6.41957,-3.04241 3.35012,-11.85522 2.12441,-17.23109 -2.77542,-4.24308 -5.03779,-10.28046 -7.46365,-13.67284 -7.73165,1.22234 -15.19564,4.12667 -23.13184,4.19825 -3.4854,-0.45354 -5.81367,0.0709 -4.61984,4.38524 -0.71423,9.44847 -0.46009,19.12334 -2.84545,28.33528 -0.84481,5.37073 -4.92584,7.22274 -10.033133,6.37618 z"
       id="path21" />
  </g>
</svg>
