<?xml version="1.0" encoding="utf-8"?>
<!-- Generator: Adobe Illustrator 26.0.1, SVG Export Plug-In . SVG Version: 6.00 Build 0)  -->
<svg version="1.1"
	 id="svg5" sodipodi:docname="Husky-2.svg" xmlns:inkscape="http://www.inkscape.org/namespaces/inkscape" xmlns:sodipodi="http://sodipodi.sourceforge.net/DTD/sodipodi-0.dtd" xmlns:svg="http://www.w3.org/2000/svg"
	 xmlns="http://www.w3.org/2000/svg" xmlns:xlink="http://www.w3.org/1999/xlink" x="0px" y="0px" viewBox="0 0 334.1 351.7"
	 style="enable-background:new 0 0 334.1 351.7;" xml:space="preserve">
<sodipodi:namedview  bordercolor="#666666" borderopacity="1.0" id="namedview7" inkscape:current-layer="layer1" inkscape:cx="397.28131" inkscape:cy="561.92642" inkscape:document-units="mm" inkscape:pagecheckerboard="0" inkscape:pageopacity="0.0" inkscape:pageshadow="2" inkscape:window-height="1027" inkscape:window-maximized="1" inkscape:window-width="1920" inkscape:window-x="1192" inkscape:window-y="529" inkscape:zoom="0.7500982" pagecolor="#ffffff" showgrid="false">
	</sodipodi:namedview>
<g id="layer1" inkscape:groupmode="layer" inkscape:label="Layer 1">
	<path id="path21" d="M103.9,351.1c-15.9-4.4,12.8-16.6,6.1-28.1c0.3-14.1,1.2-28.3-0.5-42.3c-5.3,19.1-5.2,41-15.9,58.3
		c-10.7,8.8-47.9,3.7-25.1-10.2c22.3,4,10.3-30,12.1-42.9c-2.8-27.8-5.7-56.4-19-81.4c-9-17.4-14.8-36.4-14.5-56.1
		c-3.5-14,2.1-40.5-9.4-47.1c-11.2,3.3-28.8-0.8-34.6-6.7c5.6-8,21.5-13.1,3.7-16.6c-12.6-9.8-6.7-24.5,9.2-24
		c15.3-2.2,20.4-21.3,25.3-32.2C40.7,14.4,34.6-9,48.8,3.7c9.9,9.8,21.5,27.6,28.6,5.3C92.2-8,93.2,27.2,97,36.5
		c7.6,13.7,19.3,27.5,22.5,44.5c0.5,6.9,4,11.8,10,15.2c11.6,9.4,22.5,20.8,38.1,22.8c12.9,2.7,35.4,6.4,42.6-4.2
		c-5.7-10.8-7.1-20.5-5.6-30.3c5.2-8,10.9-20.6,23.1-21.3c12.8-4.7,32.5-7.7,41.7,0.8c3.4,11,13.8,23.3,11.3,34.8
		c2,5.8,6,11.8,8,21.3c16.4,18.4,25.5,42.1,28.7,66.4c5.2,17.5,2.4,35.4,0.7,53.1c0.1,21.8,15.6,40.5,14.6,62.6
		c-2.6,12.8,8.8,37.3-7.6,41.1c-10.3,5.1-31-4.8-13.3-13.2c9.7-16.4-4.4-36.1-11.6-51.1c-11.5-17.6-25.7-33.7-34.4-53
		c-1,13-4,26.7,1.8,39.1c3.8,18.3-1.3,36.9-10.4,52.8c0.2,15-42.6,6.4-22.8-2.1c18.2-8.6,9.5-33.6,6-48.8
		c-7.9-12-14.3-29.1-21.2-38.8c-21.9,3.5-43.1,11.7-65.6,11.9c-9.9-1.3-16.5,0.2-13.1,12.4c-2,26.8-1.3,54.2-8.1,80.3
		C130,348.3,118.4,353.5,103.9,351.1L103.9,351.1z"/>
</g>
</svg>
