<?xml version="1.0" encoding="UTF-8" standalone="no"?>
<!-- Created with Inkscape (http://www.inkscape.org/) -->

<svg
   width="120mm"
   height="84.842766mm"
   viewBox="0 0 120 84.842767"
   version="1.1"
   id="svg147"
   inkscape:version="1.1.1 (3bf5ae0d25, 2021-09-20)"
   sodipodi:docname="Lab-1.svg"
   xmlns:inkscape="http://www.inkscape.org/namespaces/inkscape"
   xmlns:sodipodi="http://sodipodi.sourceforge.net/DTD/sodipodi-0.dtd"
   xmlns="http://www.w3.org/2000/svg"
   xmlns:svg="http://www.w3.org/2000/svg">
  <sodipodi:namedview
     id="namedview149"
     pagecolor="#ffffff"
     bordercolor="#666666"
     borderopacity="1.0"
     inkscape:pageshadow="2"
     inkscape:pageopacity="0.0"
     inkscape:pagecheckerboard="0"
     inkscape:document-units="mm"
     showgrid="false"
     inkscape:zoom="0.7500982"
     inkscape:cx="633.917"
     inkscape:cy="473.93795"
     inkscape:window-width="1920"
     inkscape:window-height="1147"
     inkscape:window-x="1192"
     inkscape:window-y="752"
     inkscape:window-maximized="1"
     inkscape:current-layer="layer1" />
  <defs
     id="defs144" />
  <g
     inkscape:label="Layer 1"
     inkscape:groupmode="layer"
     id="layer1"
     transform="translate(62.747179,-23.228736)">
    <path
       style="fill:#000000;stroke-width:0.0920703"
       d="m 26.25399,107.73094 c -4.544558,-1.4036 -4.165386,-7.08655 -4.800305,-10.862669 -0.523028,-6.648764 0.178595,-13.593874 -2.038524,-19.977368 -3.809003,-0.04816 -8.063344,0.745383 -12.0792757,0.409023 -5.5883569,0.261046 -11.490862,-0.155702 -16.1264116,-3.659796 -3.7733337,-3.456389 -9.3506657,-2.595901 -9.6073337,3.126269 -3.645328,4.415481 -8.011848,8.463622 -13.573217,10.249162 -4.460475,1.8214 -9.32802,5.468007 -9.409276,10.688693 4.258028,-0.906968 1.104318,4.712486 4.408447,4.847286 2.328993,6.5861 -11.101061,7.16003 -9.190754,-0.20676 -0.02465,-5.954811 -1.143221,-12.110425 0.537793,-17.921045 3.08292,-3.606833 8.898326,-5.571195 9.171582,-10.966091 0.959349,-5.113398 0.820426,-10.735955 3.880521,-15.170795 -4.53967,-0.701498 -9.94025,-0.420394 -14.741146,-1.445822 -4.778437,-1.696412 -11.984196,0.187945 -15.433269,-3.183923 2.663888,-4.757361 9.855522,-4.300411 14.709831,-3.873432 6.285985,1.416522 12.795326,2.441547 19.171329,0.874115 10.867382,-2.609729 22.0938822,-2.379541 33.1453852,-3.453892 9.9938518,-1.780428 18.2927878,-8.570853 24.1937818,-16.530971 0.428997,-4.030195 6.18687,-7.136585 10.35352,-7.186674 5.392776,-1.537296 8.338637,4.285573 13.002943,4.879604 3.965036,-1.390756 6.80694,0.735329 4.717882,4.636704 -1.532369,2.078848 -3.614453,2.709595 -0.71247,4.084427 -1.890833,5.308771 -8.314459,2.471148 -12.310044,4.289594 -5.109352,2.49252 -4.517768,9.608203 -6.114507,14.414107 0.583031,4.943587 -0.120826,10.200199 -3.789875,13.916252 -5.069069,4.130192 -5.493594,10.995342 -6.110379,17.000888 0.288679,4.064667 -2.981738,12.390049 2.660859,13.095508 5.404535,2.165516 1.79811,9.981266 -3.917087,7.927606 z"
       id="path163" />
  </g>
</svg>
