<?xml version="1.0" encoding="utf-8"?>
<!-- Generator: Adobe Illustrator 26.0.1, SVG Export Plug-In . SVG Version: 6.00 Build 0)  -->
<svg version="1.1" id="Layer_1" xmlns="http://www.w3.org/2000/svg" xmlns:xlink="http://www.w3.org/1999/xlink" x="0px" y="0px"
	 viewBox="0 0 213.1 141.8" style="enable-background:new 0 0 213.1 141.8;" xml:space="preserve">
<path d="M209.6,104.2V77.4c0-2.7-1.3-6.6-2.9-8.8l-27.5-37.2c-1.6-2.2-5.1-3.9-7.8-3.9h-24.3c-0.2,0-0.4,0.1-0.6,0.1V16.4
	c0-9.1-6.9-16.4-15.4-16.4H15.4C6.9,0,0,7.3,0,16.4v80.8c0,0.1,0,0.1,0,0.2v0.1v17.8c0,5.4,4.4,9.8,9.8,9.8h1.4h9.6h5
	c0,9.2,7.5,16.7,16.7,16.7s16.7-7.5,16.7-16.7h5h89.5h5c0,9.2,7.5,16.7,16.7,16.7s16.7-7.5,16.7-16.7h5h3.7h2.5
	c5.4,0,9.8-4.4,9.8-9.8v-6.6C212.9,106.6,211.5,104.8,209.6,104.2z"/>
</svg>
