<?xml version="1.0" encoding="utf-8"?>
<!-- Generator: Adobe Illustrator 26.0.1, SVG Export Plug-In . SVG Version: 6.00 Build 0)  -->
<svg version="1.1"
	 id="svg5" sodipodi:docname="Paragraph.svg" xmlns:inkscape="http://www.inkscape.org/namespaces/inkscape" xmlns:sodipodi="http://sodipodi.sourceforge.net/DTD/sodipodi-0.dtd" xmlns:svg="http://www.w3.org/2000/svg"
	 xmlns="http://www.w3.org/2000/svg" xmlns:xlink="http://www.w3.org/1999/xlink" x="0px" y="0px" viewBox="0 0 221.9 340.2"
	 style="enable-background:new 0 0 221.9 340.2;" xml:space="preserve">
<sodipodi:namedview  bordercolor="#666666" borderopacity="1.0" id="namedview7" inkscape:current-layer="text605" inkscape:cx="739.23654" inkscape:cy="561.92642" inkscape:document-units="mm" inkscape:pagecheckerboard="0" inkscape:pageopacity="0.0" inkscape:pageshadow="2" inkscape:window-height="1027" inkscape:window-maximized="1" inkscape:window-width="1920" inkscape:window-x="1192" inkscape:window-y="529" inkscape:zoom="0.7500982" pagecolor="#ffffff" showgrid="false">
	</sodipodi:namedview>
<g id="layer1" inkscape:groupmode="layer" inkscape:label="Layer 1">
	<g id="text605">
		<path id="path7843" d="M72.2,135.9c-7.2,4.8-10.9,10.7-10.9,17.9c0,7.1,3.1,13.4,9.4,18.8c6.3,5.3,17.3,10.6,33.2,16
			c24.8,8.6,40.6,14.7,47.3,18.4c7.2-5,10.9-11.5,10.9-19.5c0-5.5-1.9-10.7-5.7-15.7c-3.8-4.9-8.7-8.8-14.7-11.8
			c-6.8-3.1-17-6.6-30.8-10.7C90.9,143.3,78,138.9,72.2,135.9L72.2,135.9z M12.3,274h61.3c0.7,10.2,4.5,17.8,11.2,22.8
			c6.8,5.2,16.5,7.7,29.3,7.7c22,0,33-6.9,33-20.8c0-6-2.8-11-8.3-14.9c-5.3-3.6-18.7-9.2-40.3-16.9c-26.6-9.3-46.2-17.2-58.7-23.6
			c-12.3-6.3-21.9-14.6-28.9-25C3.6,192.8,0,180.9,0,167.6c0-23,11.4-41.3,34.1-54.9c-15-13.5-22.5-29.2-22.5-47
			c0-19.5,8.2-35.4,24.7-47.5C52.7,6.1,76,0,106.1,0c30,0,54.5,6.2,73.5,18.6c18.9,12.3,28.7,28.7,29.5,49.2h-61.3
			c-5.2-21.2-18.8-31.9-40.9-31.9c-10.3,0-18,2.2-23.2,6.6c-5.2,4.5-7.7,9.8-7.7,15.7c0,6.4,2.9,11.6,8.7,15.7
			c5.6,4.2,19,9.5,40.1,16c23.9,7.4,42.3,14.5,55.1,21.4c13.5,7.2,23.9,16.5,31.3,27.6c7.2,11.5,10.9,24.1,10.9,37.6
			c0,22.7-11.4,40.3-34.3,52.7c17.4,12.6,26.2,27.4,26.2,44.4c0,18.9-8.6,34.7-25.8,47.5c-17.2,12.8-41.9,19.2-74.2,19.2
			c-32,0-57-5.8-74.8-17.3c-17.9-11.7-26.9-26.2-26.9-43.6C12.2,277.1,12.2,275.4,12.3,274L12.3,274z"/>
	</g>
</g>
</svg>
