<?xml version="1.0" encoding="utf-8"?>
<!-- Generator: Adobe Illustrator 26.0.1, SVG Export Plug-In . SVG Version: 6.00 Build 0)  -->
<svg version="1.1"
	 id="svg137" inkscape:version="1.1.1 (3bf5ae0d25, 2021-09-20)" sodipodi:docname="Phoenix.svg" xmlns:inkscape="http://www.inkscape.org/namespaces/inkscape" xmlns:sodipodi="http://sodipodi.sourceforge.net/DTD/sodipodi-0.dtd" xmlns:svg="http://www.w3.org/2000/svg"
	 xmlns="http://www.w3.org/2000/svg" xmlns:xlink="http://www.w3.org/1999/xlink" x="0px" y="0px" viewBox="0 0 204.3 226.8"
	 style="enable-background:new 0 0 204.3 226.8;" xml:space="preserve">
<sodipodi:namedview  bordercolor="#666666" borderopacity="1.0" id="namedview139" inkscape:current-layer="svg137" inkscape:cx="319.66399" inkscape:cy="448.49179" inkscape:document-units="pt" inkscape:pagecheckerboard="0" inkscape:pageopacity="0.0" inkscape:pageshadow="2" inkscape:window-height="1147" inkscape:window-maximized="1" inkscape:window-width="1920" inkscape:window-x="1192" inkscape:window-y="752" inkscape:zoom="0.93535714" pagecolor="#ffffff" showgrid="false">
	</sodipodi:namedview>
<path id="path67" d="M200.4,98.6c0-0.2,0.2-0.5,0.2-0.5c12.9-38.4-8.8-77.1-50.1-97.9c6.7,11.7,8.6,25.3,5,38.9
	c-4.1,14.6-14.1,27-27.5,36c1.9-11.9-4.8-29.8-12.9-41.1c6.9-1.4,18.1-9.1,19.8-18.4c-24.1,15.8-48.5-4.1-65.6,22.7
	c0.5,0.2,4.8,0,5,0c15.8,1,21.5,4.5,20.3,13.1c-0.7,5.7-4.3,10.7-9.8,14.3c-3.1,2.1-6.9,5-10,8.1c-12.9-8.8-22.2-21-26-35.1
	C45,25.3,47.1,11.7,53.8,0C12.5,20.8-9.2,59.4,3.7,97.9c0,0.2,0.2,0.5,0.2,0.5c4.3-7.6,10-14.8,17.2-21c-2.1,5.5-3.6,11-4.1,16.9
	c-1.2,13.8,6,29.4,13.6,41.1c0,0-2.6-16.5,8.4-28.9c-0.2,5.7,0.2,11.5,2.1,17.2c7.6,23.4,25.5,33.2,29.6,34.6
	c-5.3-10.7-7.6-21.5-7.6-31.5c2.4,5.3,5.5,10.5,9.3,15.8l0.2,0.2v0.2c6.7,9.1,7.6,20.1,2.6,29.6c-13.8,25.5-26.7,35.8-26.7,35.8
	c0.2,0,38.9,4.5,45.4-33.9c-1,16,2.1,42.3,8.6,52.3c6.4-10.3,9.1-37.5,8.6-53c2.4,32,44.9,34.6,45.4,34.6c0,0-12.9-10.3-26.7-35.8
	c-5.3-9.5-4.1-20.5,2.6-29.6v-0.2l0.2-0.2c3.8-5.3,6.9-10.5,9.3-15.8c0,10-2.4,20.8-7.6,31.5c3.8-1.4,22-11.2,29.6-34.6
	c1.9-5.7,2.4-11.5,2.1-17.2c10.7,12.2,8.4,28.9,8.4,28.9c7.6-11.7,14.8-27.2,13.6-41.1c-0.5-6-1.9-11.5-4.1-16.9
	C190.4,83.8,196.3,90.7,200.4,98.6L200.4,98.6z"/>
</svg>
