<?xml version="1.0" encoding="UTF-8" standalone="no"?>
<!-- Created with Inkscape (http://www.inkscape.org/) -->

<svg
   width="210mm"
   height="297mm"
   viewBox="0 0 210 297"
   version="1.1"
   id="svg5"
   inkscape:version="1.1.1 (3bf5ae0d25, 2021-09-20)"
   sodipodi:docname="Poodle.svg"
   xmlns:inkscape="http://www.inkscape.org/namespaces/inkscape"
   xmlns:sodipodi="http://sodipodi.sourceforge.net/DTD/sodipodi-0.dtd"
   xmlns="http://www.w3.org/2000/svg"
   xmlns:svg="http://www.w3.org/2000/svg">
  <sodipodi:namedview
     id="namedview7"
     pagecolor="#ffffff"
     bordercolor="#666666"
     borderopacity="1.0"
     inkscape:pageshadow="2"
     inkscape:pageopacity="0.0"
     inkscape:pagecheckerboard="0"
     inkscape:document-units="mm"
     showgrid="false"
     inkscape:zoom="0.7500982"
     inkscape:cx="396.61473"
     inkscape:cy="348.62102"
     inkscape:window-width="1920"
     inkscape:window-height="1027"
     inkscape:window-x="1192"
     inkscape:window-y="529"
     inkscape:window-maximized="1"
     inkscape:current-layer="layer1" />
  <defs
     id="defs2">
    <pattern
       id="EMFhbasepattern"
       patternUnits="userSpaceOnUse"
       width="6"
       height="6"
       x="0"
       y="0" />
  </defs>
  <g
     inkscape:label="Layer 1"
     inkscape:groupmode="layer"
     id="layer1">
    <path
       style="fill:#000000;stroke-width:0.352641"
       d="m 47.712163,124.84995 c -3.990754,-2.66492 -5.252782,-5.15669 -5.762381,-11.37733 -0.635228,-7.75419 0.704367,-14.769228 4.531893,-23.732108 1.770719,-4.14648 1.953322,-5.56179 2.044268,-15.84469 0.0858,-9.70044 0.481854,-13.19206 1.786398,-15.74871 0.465358,-0.91202 0.43156,-0.96793 -1.229231,-2.03366 -0.93926,-0.60272 -2.626608,-2.08498 -3.749662,-3.2939 -1.123053,-1.20892 -2.815372,-3.0251 -3.760707,-4.03595 -3.27842,-3.50563 -4.351236,-7.80752 -2.799168,-11.22439 1.430115,-3.14839 4.061838,-4.16169 8.272464,-3.18519 3.94787,0.91558 6.132405,2.60273 9.13151,7.05243 0.908246,1.34754 1.850149,2.15954 4.911047,4.23373 l 1.290445,0.87446 2.412286,-0.69634 c 4.144144,-1.19628 8.601896,-1.46442 17.369184,-1.04479 20.781851,0.99468 23.809741,0.91967 29.122981,-0.72142 4.17273,-1.28882 7.53576,-5.20395 11.23771,-13.08259 1.77196,-3.77114 1.89213,-4.20296 2.05935,-7.39988 0.36922,-7.058783 3.67094,-11.100586 10.49056,-12.842043 3.12157,-0.7971251 8.10468,-0.57026 10.06616,0.458282 2.56861,1.346901 3.6166,2.787066 4.04747,5.562114 0.64939,4.182367 1.89595,5.212987 5.89622,4.874837 2.87154,-0.24273 4.34014,0.17954 5.20269,1.49596 0.71287,1.08799 0.69591,2.94594 -0.0369,4.04181 -1.89768,2.83786 -3.40317,3.75281 -8.05667,4.89636 -1.74557,0.42895 -3.54351,1.02009 -3.99542,1.31364 -1.28138,0.83234 -1.7457,2.36274 -1.54937,5.10669 0.24252,3.3895 -0.46015,5.07162 -3.12649,7.48452 l -2.09283,1.8939 -0.51572,3.66508 c -0.28365,2.0158 -0.6718,7.71306 -0.86255,12.6606 -0.37939,9.84014 -0.60533,11.0689 -3.00259,16.32935 -0.66666,1.46288 -1.3733,3.26619 -1.57031,4.00735 -0.19701,0.74115 -0.44838,6.74296 -0.55859,13.33734 -0.25324,15.152168 -0.64891,20.148768 -1.79755,22.699798 -0.99065,2.20016 -1.0316,2.69187 -0.33535,4.02669 0.49244,0.94408 0.4746,0.99852 -0.44297,1.35176 -0.52584,0.20243 -2.14624,0.31478 -3.60089,0.24968 -3.22357,-0.14427 -5.74754,-1.26428 -8.24781,-3.65996 -3.17279,-3.04007 -4.3385,-6.81939 -5.48768,-17.79147 -0.39612,-3.78207 -0.87948,-7.430858 -1.07414,-8.108408 -0.19466,-0.67756 -0.35393,-2.9493 -0.35393,-5.04832 0,-2.09902 -0.15812,-4.11186 -0.35139,-4.47297 -0.25228,-0.47139 -0.9236,-0.72268 -2.38032,-0.89097 -5.65414,-0.65323 -9.67231,-2.16862 -18.603068,-7.01585 -6.0892,-3.30496 -11.219313,-5.6768 -13.085951,-6.05012 -2.190387,-0.43808 -3.503379,1.70741 -4.373634,7.14673 -0.695295,4.34577 -5.14879,12.5133 -10.345914,18.97398 -2.24038,2.785068 -3.808609,5.549258 -4.846551,8.542618 -0.847901,2.44529 -1.725496,7.94009 -1.72837,10.82165 -0.0016,1.60727 -0.212431,2.4438 -0.920328,3.65174 -0.641382,1.09444 -0.858919,1.86353 -0.721477,2.55074 0.242011,1.21005 -0.277704,1.39859 -3.874185,1.40547 -2.35314,0.005 -2.653802,-0.0869 -4.632549,-1.40825 z"
       id="path20" />
  </g>
</svg>
