<?xml version="1.0" encoding="utf-8"?>
<!-- Generator: Adobe Illustrator 26.0.1, SVG Export Plug-In . SVG Version: 6.00 Build 0)  -->
<svg version="1.1"
	 id="svg5" sodipodi:docname="Poodle.svg" xmlns:inkscape="http://www.inkscape.org/namespaces/inkscape" xmlns:sodipodi="http://sodipodi.sourceforge.net/DTD/sodipodi-0.dtd" xmlns:svg="http://www.w3.org/2000/svg"
	 xmlns="http://www.w3.org/2000/svg" xmlns:xlink="http://www.w3.org/1999/xlink" x="0px" y="0px" viewBox="0 0 347.9 328.8"
	 style="enable-background:new 0 0 347.9 328.8;" xml:space="preserve">
<sodipodi:namedview  bordercolor="#666666" borderopacity="1.0" id="namedview7" inkscape:current-layer="layer1" inkscape:cx="396.61473" inkscape:cy="348.62102" inkscape:document-units="mm" inkscape:pagecheckerboard="0" inkscape:pageopacity="0.0" inkscape:pageshadow="2" inkscape:window-height="1027" inkscape:window-maximized="1" inkscape:window-width="1920" inkscape:window-x="1192" inkscape:window-y="529" inkscape:zoom="0.7500982" pagecolor="#ffffff" showgrid="false">
	</sodipodi:namedview>
<g id="layer1" inkscape:groupmode="layer" inkscape:label="Layer 1">
	<path id="path20" d="M27.3,324.8C16,317.2,12.4,310.2,11,292.5c-1.8-22,2-41.9,12.8-67.3c5-11.8,5.5-15.8,5.8-44.9
		c0.2-27.5,1.4-37.4,5.1-44.6c1.3-2.6,1.2-2.7-3.5-5.8c-2.7-1.7-7.4-5.9-10.6-9.3s-8-8.6-10.7-11.4C0.6,99.2-2.4,87,2,77.4
		c4.1-8.9,11.5-11.8,23.4-9c11.2,2.6,17.4,7.4,25.9,20c2.6,3.8,5.2,6.1,13.9,12l3.7,2.5l6.8-2c11.7-3.4,24.4-4.2,49.2-3
		c58.9,2.8,67.5,2.6,82.6-2c11.8-3.7,21.4-14.8,31.9-37.1c5-10.7,5.4-11.9,5.8-21c1-20,10.4-31.5,29.7-36.4c8.8-2.3,23-1.6,28.5,1.3
		c7.3,3.8,10.3,7.9,11.5,15.8c1.8,11.9,5.4,14.8,16.7,13.8c8.1-0.7,12.3,0.5,14.7,4.2c2,3.1,2,8.4-0.1,11.5
		c-5.4,8-9.6,10.6-22.8,13.9c-4.9,1.2-10,2.9-11.3,3.7c-3.6,2.4-4.9,6.7-4.4,14.5c0.7,9.6-1.3,14.4-8.9,21.2l-5.9,5.4l-1.5,10.4
		c-0.8,5.7-1.9,21.9-2.4,35.9c-1.1,27.9-1.7,31.4-8.5,46.3c-1.9,4.1-3.9,9.3-4.5,11.4c-0.6,2.1-1.3,19.1-1.6,37.8
		c-0.7,43-1.8,57.1-5.1,64.3c-2.8,6.2-2.9,7.6-1,11.4c1.4,2.7,1.3,2.8-1.3,3.8c-1.5,0.6-6.1,0.9-10.2,0.7
		c-9.1-0.4-16.3-3.6-23.4-10.4c-9-8.6-12.3-19.3-15.6-50.4c-1.1-10.7-2.5-21.1-3-23c-0.6-1.9-1-8.4-1-14.3c0-5.9-0.4-11.7-1-12.7
		c-0.7-1.3-2.6-2-6.7-2.5c-16-1.9-27.4-6.1-52.7-19.9c-17.3-9.4-31.8-16.1-37.1-17.1c-6.2-1.2-9.9,4.8-12.4,20.3
		c-2,12.3-14.6,35.5-29.3,53.8c-6.4,7.9-10.8,15.7-13.7,24.2c-2.4,6.9-4.9,22.5-4.9,30.7c0,4.6-0.6,6.9-2.6,10.4
		c-1.8,3.1-2.4,5.3-2,7.2c0.7,3.4-0.8,4-11,4C33.8,328.8,32.9,328.5,27.3,324.8L27.3,324.8z"/>
</g>
</svg>
