<?xml version="1.0" encoding="UTF-8" standalone="no"?>
<!-- Created with Inkscape (http://www.inkscape.org/) -->

<svg
   xmlns:dc="http://purl.org/dc/elements/1.1/"
   xmlns:cc="http://creativecommons.org/ns#"
   xmlns:rdf="http://www.w3.org/1999/02/22-rdf-syntax-ns#"
   xmlns:svg="http://www.w3.org/2000/svg"
   xmlns="http://www.w3.org/2000/svg"
   xmlns:sodipodi="http://sodipodi.sourceforge.net/DTD/sodipodi-0.dtd"
   xmlns:inkscape="http://www.inkscape.org/namespaces/inkscape"
   version="1.1"
   id="svg5662"
   width="261"
   height="295"
   viewBox="0 0 261 295"
   sodipodi:docname="CC-Ridgeback-1.svg"
   inkscape:version="0.92.4 (5da689c313, 2019-01-14)">
  <metadata
     id="metadata5668">
    <rdf:RDF>
      <cc:Work
         rdf:about="">
        <dc:format>image/svg+xml</dc:format>
        <dc:type
           rdf:resource="http://purl.org/dc/dcmitype/StillImage" />
        <dc:title></dc:title>
      </cc:Work>
    </rdf:RDF>
  </metadata>
  <defs
     id="defs5666" />
  <sodipodi:namedview
     pagecolor="#ffffff"
     bordercolor="#666666"
     borderopacity="1"
     objecttolerance="10"
     gridtolerance="10"
     guidetolerance="10"
     inkscape:pageopacity="0"
     inkscape:pageshadow="2"
     inkscape:window-width="1920"
     inkscape:window-height="1147"
     id="namedview5664"
     showgrid="false"
     inkscape:zoom="0.8"
     inkscape:cx="130.5"
     inkscape:cy="147.5"
     inkscape:window-x="1192"
     inkscape:window-y="738"
     inkscape:window-maximized="1"
     inkscape:current-layer="svg5662" />
  <path
     style="fill:#000000;stroke-width:1.07560384"
     d="M 20.254119,289.73094 C 3.6256383,287.1687 -0.71902675,283.55961 5.6369208,277.58851 c 2.8182541,-2.6476 6.6769402,-3.2878 42.5501132,-7.05946 26.147988,-2.74918 43.092863,-6.70957 57.172346,-13.36242 8.07657,-3.81636 8.8725,-5.19379 6.9692,-12.06074 -6.59364,-23.78924 1.965,-47.61469 20.83116,-57.98954 3.02938,-1.66592 5.52593,-4.06375 6.67308,-6.40921 1.00806,-2.06112 3.55792,-7.37765 5.66635,-11.81451 2.10842,-4.43687 7.45983,-12.90725 11.89202,-18.82307 9.70606,-12.95507 16.11984,-25.20294 25.8684,-49.39884 4.2805,-10.624209 9.55576,-21.598758 12.66702,-26.352295 2.93242,-4.480278 6.25368,-10.218432 7.38058,-12.751445 2.28075,-5.126655 3.85473,-18.936438 2.26993,-19.915903 -0.5556,-0.343383 -3.48713,1.102051 -6.5145,3.212073 -10.16827,7.087089 -13.7361,3.290354 -13.7361,-14.61735 0,-16.945225 2.11745,-21.0334475 15.50018,-29.9267714 13.94037,-9.2638844 17.06566,-10.239715 35.45532,-11.0704046 9.20361,-0.415741 18.28367,-0.327966 20.17791,0.195062 6.32974,1.7477227 14.51581,13.8153215 15.97575,23.550825 1.04774,6.986909 -1.72439,13.390103 -6.95145,16.05675 l -4.00568,2.043545 1.99071,10.344673 c 1.09489,5.68957 3.18008,15.61348 4.63374,22.053131 5.50801,24.400144 6.3146,33.649563 5.4864,62.91366 -0.41855,14.78956 -1.18609,30.52026 -1.70564,34.95713 -1.87362,16.00064 -3.57028,44.99165 -3.65218,62.40531 -0.0793,16.86103 0.0399,17.92506 2.33655,20.85043 4.4999,5.73188 2.84656,11.20805 -4.23999,14.04352 -5.74283,2.29783 -13.03449,1.42035 -16.4323,-1.97746 -2.25214,-2.25213 -2.42418,-3.58843 -3.06988,-23.84602 -0.81285,-25.50116 -4.03133,-52.19051 -6.84212,-56.73848 -0.53443,-0.86471 -25.07821,23.50422 -25.07821,24.89954 0,0.23888 1.53392,3.55016 3.40872,7.3584 2.68346,5.45091 3.51194,8.70734 3.89391,15.30563 0.43224,7.46683 0.1551,9.11708 -2.53945,15.12134 -3.33893,7.44014 -3.49704,6.97568 3.73867,10.98329 4.34574,2.40697 7.62321,7.97963 7.62818,12.97016 0.003,3.67889 -0.25604,4.03541 -2.95388,4.05507 -5.32987,0.0388 -22.17497,4.94848 -29.19627,8.50946 -14.2021,7.20286 -23.38834,5.44658 -26.71525,-5.10758 l -1.81783,-5.76684 -9.72262,0.39906 c -9.23531,0.37905 -10.53127,0.75353 -25.85667,7.47154 -8.87373,3.88987 -18.17186,7.85609 -20.66252,8.81382 -9.42095,3.62264 -29.377519,8.30537 -39.653454,9.30452 -15.287729,1.48647 -42.320658,1.14375 -54.203047,-0.68717 z"
     id="path6215"
     inkscape:connector-curvature="0" />
</svg>
