<?xml version="1.0" encoding="utf-8"?>
<!-- Generator: Adobe Illustrator 26.0.1, SVG Export Plug-In . SVG Version: 6.00 Build 0)  -->
<svg version="1.1"
	 id="svg5107" sodipodi:docname="CC-Ridgeback.svg" xmlns:cc="http://creativecommons.org/ns#" xmlns:dc="http://purl.org/dc/elements/1.1/" xmlns:inkscape="http://www.inkscape.org/namespaces/inkscape" xmlns:rdf="http://www.w3.org/1999/02/22-rdf-syntax-ns#" xmlns:sodipodi="http://sodipodi.sourceforge.net/DTD/sodipodi-0.dtd" xmlns:svg="http://www.w3.org/2000/svg"
	 xmlns="http://www.w3.org/2000/svg" xmlns:xlink="http://www.w3.org/1999/xlink" x="0px" y="0px" viewBox="0 0 302.4 172.8"
	 style="enable-background:new 0 0 302.4 172.8;" xml:space="preserve">
<sodipodi:namedview  bordercolor="#666666" borderopacity="1" gridtolerance="10" guidetolerance="10" id="namedview5109" inkscape:current-layer="svg5107" inkscape:cx="350" inkscape:cy="350" inkscape:pageopacity="0" inkscape:pageshadow="2" inkscape:window-height="1147" inkscape:window-maximized="1" inkscape:window-width="1920" inkscape:window-x="1192" inkscape:window-y="738" inkscape:zoom="0.33714286" objecttolerance="10" pagecolor="#ffffff" showgrid="false">
	</sodipodi:namedview>
<path id="path5660" inkscape:connector-curvature="0" d="M161.9,172.6c-4.9-0.2-7.5-0.6-9.7-1.5c-4.1-1.6-8.9-4.5-11.7-7.2
	c-2.5-2.4-7.5-9.7-7.5-10.9c0-1.3-2.7-0.8-7.2,1.4c-5.4,2.6-9.8,7.1-12.8,13c-1.1,2.2-2.5,4.1-2.9,4.2c-0.4,0.1-25.4,0.1-55.5,0
	L0,171.5v-1.8c0-2.4,2.6-8.2,4.6-10.2c2.5-2.5,7-5.6,11.1-7.5c2.1-1,4.9-2.7,6.2-3.9c1.5-1.3,3.4-2.4,4.8-2.8
	c1.3-0.3,8.5-1.2,16-1.9c7.5-0.7,23.1-2.4,34.7-3.7c11.6-1.3,21.3-2.4,21.5-2.4c0.2,0,0.4-2.2,0.4-4.9c0-4.8,1.2-10.9,2.9-15
	c2.6-6.1,8-13,13.3-16.8c1.5-1.1,2.8-2,3-2.1c0.2-0.1,2.2-8.4,6.5-27.4c1.9-8.2,1.7-10.4-1.1-16.3c-3.1-6.5-7.7-10-16.2-12.1
	c-6.7-1.6-23.4-7.4-25.1-8.6c-2.7-2-4-5.4-5-13.2c-0.7-5.1-0.8-7.3-0.4-7.5c0.3-0.2,8-0.8,17-1.3l16.4-1l3.4-3.2
	c3.9-3.6,8.3-6,13.1-7.2c4.2-1,9.6-1,11.5-0.1c0.8,0.4,2.5,0.9,3.7,1.1c2.9,0.5,7.8,3.4,11.3,6.9c2.1,2,3.5,4.2,5.4,8.1
	c2.3,4.7,9.4,23.4,12,31.8c0.9,2.8,2.4,6.3,13.3,30.5l4.7,10.4l4.9,1.6c2.7,0.9,14.6,4.8,26.5,8.7c11.9,3.9,23.5,7.7,25.8,8.5
	c3.4,1.2,4.3,1.3,5.1,0.8c3.9-2.9,12.2-5.4,17.6-5.4c5.3,0,12.8,2,17.9,4.8c6.4,3.5,12.2,11.1,14.2,18.5c1.2,4.6,1.5,13.4,0.5,17.9
	c-2.6,12.2-12.1,22.6-24,26.1c-2.3,0.7-9.6,0.9-41.5,1.2c-21.3,0.2-45.2,0.5-53.2,0.6C175.1,172.8,165.6,172.7,161.9,172.6
	L161.9,172.6z"/>
</svg>
