<?xml version="1.0" encoding="UTF-8" standalone="no"?>
<!-- Created with Inkscape (http://www.inkscape.org/) -->

<svg
   xmlns:dc="http://purl.org/dc/elements/1.1/"
   xmlns:cc="http://creativecommons.org/ns#"
   xmlns:rdf="http://www.w3.org/1999/02/22-rdf-syntax-ns#"
   xmlns:svg="http://www.w3.org/2000/svg"
   xmlns="http://www.w3.org/2000/svg"
   xmlns:sodipodi="http://sodipodi.sourceforge.net/DTD/sodipodi-0.dtd"
   xmlns:inkscape="http://www.inkscape.org/namespaces/inkscape"
   version="1.1"
   id="svg5107"
   width="700"
   height="700"
   viewBox="0 0 700 700"
   sodipodi:docname="CC-Ridgeback.svg"
   inkscape:version="0.92.4 (5da689c313, 2019-01-14)">
  <metadata
     id="metadata5113">
    <rdf:RDF>
      <cc:Work
         rdf:about="">
        <dc:format>image/svg+xml</dc:format>
        <dc:type
           rdf:resource="http://purl.org/dc/dcmitype/StillImage" />
        <dc:title></dc:title>
      </cc:Work>
    </rdf:RDF>
  </metadata>
  <defs
     id="defs5111" />
  <sodipodi:namedview
     pagecolor="#ffffff"
     bordercolor="#666666"
     borderopacity="1"
     objecttolerance="10"
     gridtolerance="10"
     guidetolerance="10"
     inkscape:pageopacity="0"
     inkscape:pageshadow="2"
     inkscape:window-width="1920"
     inkscape:window-height="1147"
     id="namedview5109"
     showgrid="false"
     inkscape:zoom="0.33714286"
     inkscape:cx="350"
     inkscape:cy="350"
     inkscape:window-x="1192"
     inkscape:window-y="738"
     inkscape:window-maximized="1"
     inkscape:current-layer="svg5107" />
  <path
     style="fill:#000000;stroke-width:0.53448194"
     d="m 368.3548,444.69225 c -4.91864,-0.24776 -7.46497,-0.63834 -9.65287,-1.48064 -4.10041,-1.57858 -8.87421,-4.52181 -11.65983,-7.18873 -2.51033,-2.40337 -7.54933,-9.65164 -7.54933,-10.85923 0,-1.31475 -2.74026,-0.79186 -7.22422,1.3785 -5.38833,2.6081 -9.78827,7.06299 -12.84984,13.01034 -1.14955,2.2331 -2.45466,4.13362 -2.90024,4.22339 -0.44558,0.0898 -25.40299,0.0976 -55.46092,0.0174 l -54.65077,-0.14589 v -1.80861 c 0,-2.36771 2.62959,-8.16124 4.62633,-10.19274 2.49942,-2.54293 7.0485,-5.59951 11.12389,-7.47425 2.0671,-0.9509 4.86897,-2.71719 6.22637,-3.92509 1.49258,-1.32818 3.39378,-2.42574 4.81034,-2.77699 1.28828,-0.31945 8.47551,-1.16042 15.97162,-1.86883 7.49611,-0.70841 23.1297,-2.37795 34.74132,-3.71009 11.61162,-1.33215 21.29243,-2.42291 21.5129,-2.42392 0.22047,-10e-4 0.40086,-2.18653 0.40086,-4.85673 0,-4.81365 1.174,-10.87993 2.90937,-15.03325 2.55147,-6.10652 8.01901,-13.01517 13.30686,-16.81421 1.51683,-1.08977 2.8493,-2.04762 2.96104,-2.12857 0.18576,-0.13456 2.16861,-8.4477 6.53699,-27.40631 1.89077,-8.20588 1.74671,-10.40797 -1.06819,-16.32817 -3.11226,-6.54562 -7.74224,-10.00176 -16.18198,-12.07938 -6.69375,-1.64781 -23.42204,-7.40368 -25.08015,-8.62957 -2.67548,-1.97807 -3.9767,-5.4097 -4.99723,-13.17887 -0.66698,-5.07766 -0.77071,-7.25594 -0.35768,-7.51121 0.31995,-0.19774 7.97596,-0.79265 17.01336,-1.32202 l 16.43163,-0.96248 3.3738,-3.15602 c 3.86309,-3.61373 8.25399,-6.01591 13.07337,-7.15219 4.22367,-0.99583 9.64573,-1.02697 11.5234,-0.0662 0.7938,0.40619 2.45037,0.90581 3.68125,1.11027 2.93972,0.48832 7.75387,3.41379 11.30172,6.86785 2.0965,2.04109 3.53197,4.18788 5.42917,8.11954 2.26169,4.68698 9.35809,23.43752 12.03578,31.80167 0.8959,2.79847 2.42549,6.29519 13.33676,30.48845 l 4.71091,10.44538 4.87035,1.64802 c 2.67869,0.90642 14.61129,4.81657 26.51687,8.68923 11.90559,3.87266 23.51346,7.68744 25.79528,8.4773 3.44855,1.19372 4.30552,1.32187 5.07758,0.75922 3.91306,-2.85166 12.23875,-5.42874 17.59643,-5.44668 5.2711,-0.0176 12.84548,2.00536 17.87694,4.77467 6.39122,3.51773 12.19271,11.07986 14.16669,18.46602 1.22672,4.59012 1.48397,13.3599 0.5252,17.90514 -2.58188,12.24006 -12.11381,22.56675 -24.04732,26.05235 -2.25665,0.65913 -9.58683,0.87631 -41.49082,1.22929 -21.31247,0.2358 -45.2439,0.51212 -53.18096,0.61405 -7.93705,0.10193 -17.43747,0.0339 -21.11203,-0.1512 z"
     id="path5660"
     inkscape:connector-curvature="0" />
</svg>
