<?xml version="1.0" encoding="utf-8"?>
<!-- Generator: Adobe Illustrator 26.0.1, SVG Export Plug-In . SVG Version: 6.00 Build 0)  -->
<svg version="1.1"
	 id="svg5662" sodipodi:docname="CC-Ridgeback-1.svg" xmlns:cc="http://creativecommons.org/ns#" xmlns:dc="http://purl.org/dc/elements/1.1/" xmlns:inkscape="http://www.inkscape.org/namespaces/inkscape" xmlns:rdf="http://www.w3.org/1999/02/22-rdf-syntax-ns#" xmlns:sodipodi="http://sodipodi.sourceforge.net/DTD/sodipodi-0.dtd" xmlns:svg="http://www.w3.org/2000/svg"
	 xmlns="http://www.w3.org/2000/svg" xmlns:xlink="http://www.w3.org/1999/xlink" x="0px" y="0px" viewBox="0 0 271 302.4"
	 style="enable-background:new 0 0 271 302.4;" xml:space="preserve">
<sodipodi:namedview  bordercolor="#666666" borderopacity="1" gridtolerance="10" guidetolerance="10" id="namedview5664" inkscape:current-layer="svg5662" inkscape:cx="130.5" inkscape:cy="147.5" inkscape:pageopacity="0" inkscape:pageshadow="2" inkscape:window-height="1147" inkscape:window-maximized="1" inkscape:window-width="1920" inkscape:window-x="1192" inkscape:window-y="738" inkscape:zoom="0.8" objecttolerance="10" pagecolor="#ffffff" showgrid="false">
	</sodipodi:namedview>
<path id="path6215" inkscape:connector-curvature="0" d="M17.4,300.7c-16.6-2.6-21-6.2-14.6-12.1c2.8-2.6,6.7-3.3,42.6-7.1
	c26.1-2.7,43.1-6.7,57.2-13.4c8.1-3.8,8.9-5.2,7-12.1c-6.6-23.8,2-47.6,20.8-58c3-1.7,5.5-4.1,6.7-6.4c1-2.1,3.6-7.4,5.7-11.8
	c2.1-4.4,7.5-12.9,11.9-18.8c9.7-13,16.1-25.2,25.9-49.4c4.3-10.6,9.6-21.6,12.7-26.4c2.9-4.5,6.3-10.2,7.4-12.8
	c2.3-5.1,3.9-18.9,2.3-19.9c-0.6-0.3-3.5,1.1-6.5,3.2c-10.2,7.1-13.7,3.3-13.7-14.6c0-16.9,2.1-21,15.5-29.9
	C211.9,2.1,215,1.1,233.4,0.3c9.2-0.4,18.3-0.3,20.2,0.2c6.3,1.7,14.5,13.8,16,23.6c1,7-1.7,13.4-7,16.1l-4,2l2,10.3
	c1.1,5.7,3.2,15.6,4.6,22.1c5.5,24.4,6.3,33.6,5.5,62.9c-0.4,14.8-1.2,30.5-1.7,35c-1.9,16-3.6,45-3.7,62.4
	c-0.1,16.9,0,17.9,2.3,20.9c4.5,5.7,2.8,11.2-4.2,14c-5.7,2.3-13,1.4-16.4-2c-2.3-2.3-2.4-3.6-3.1-23.8c-0.8-25.5-4-52.2-6.8-56.7
	c-0.5-0.9-25.1,23.5-25.1,24.9c0,0.2,1.5,3.6,3.4,7.4c2.7,5.5,3.5,8.7,3.9,15.3c0.4,7.5,0.2,9.1-2.5,15.1c-3.3,7.4-3.5,7,3.7,11
	c4.3,2.4,7.6,8,7.6,13c0,3.7-0.3,4-3,4.1c-5.3,0-22.2,4.9-29.2,8.5c-14.2,7.2-23.4,5.4-26.7-5.1l-1.8-5.8l-9.7,0.4
	c-9.2,0.4-10.5,0.8-25.9,7.5c-8.9,3.9-18.2,7.9-20.7,8.8c-9.4,3.6-29.4,8.3-39.7,9.3C56.3,302.9,29.3,302.6,17.4,300.7L17.4,300.7z"
	/>
</svg>
