<?xml version="1.0" encoding="utf-8"?>
<!-- Generator: Adobe Illustrator 26.0.1, SVG Export Plug-In . SVG Version: 6.00 Build 0)  -->
<svg version="1.1"
	 id="svg5" inkscape:version="1.1.1 (3bf5ae0d25, 2021-09-20)" sodipodi:docname="Saluki.svg" xmlns:inkscape="http://www.inkscape.org/namespaces/inkscape" xmlns:sodipodi="http://sodipodi.sourceforge.net/DTD/sodipodi-0.dtd" xmlns:svg="http://www.w3.org/2000/svg"
	 xmlns="http://www.w3.org/2000/svg" xmlns:xlink="http://www.w3.org/1999/xlink" x="0px" y="0px" viewBox="0 0 340.2 254.4"
	 style="enable-background:new 0 0 340.2 254.4;" xml:space="preserve">
<sodipodi:namedview  bordercolor="#666666" borderopacity="1.0" id="namedview7" inkscape:current-layer="layer1" inkscape:cx="483.9757" inkscape:cy="611.21423" inkscape:document-units="mm" inkscape:pagecheckerboard="0" inkscape:pageopacity="0.0" inkscape:pageshadow="2" inkscape:window-height="1027" inkscape:window-maximized="1" inkscape:window-width="1920" inkscape:window-x="1192" inkscape:window-y="529" inkscape:zoom="6.6057035" pagecolor="#ffffff" showgrid="false">
	</sodipodi:namedview>
<path d="M19,248.8c-3-4.6-3.6-9.7-3.5-30.7c0.2-25.1,0.2-25.2,5.9-30.1c22.4-19.1,24.5-21.8,12.1-16.4C22.8,176.4,0,179.4,0,176
	c0-3.5,7.9-7.9,22.3-12.3c23.2-7.2,34.1-24.1,30.9-48c-1.9-13.9,0.7-21.8,10-30.7c21.2-20.2,37.8-24.7,93.3-25.5
	c40.6-0.5,58.4-2.2,69.9-6.6c2.9-1.1,10.6-8.2,17.2-15.7C268.7,7.9,277.5,0,284.4,0c8.4,0,25.7,8.8,28.6,14.6
	c1.3,2.5,7.9,9.7,14.7,16.1l12.4,11.6l-5,4c-6.1,4.9-18.2,5.4-30.3,1.1c-10.8-3.8-10.7-3.8-8.1,0.9c1.1,2.1,2.1,10.2,2.1,17.9
	c0,10.8-0.8,14.6-3.5,16.9c-6.1,5.1-11.3,3.9-16.4-3.9c-5.7-8.7-7.2-7-9.3,10.6c-1.1,9.2-3.4,15-9.4,24.2
	c-17.8,27.2-18.8,30.5-19.5,67.6c-0.6,35,1.9,53.7,7.6,56.7c1.7,0.9,5.8,2.8,9.1,4.3c3.7,1.6,6.3,4.4,6.7,7.2
	c0.6,4.3,0,4.5-12.5,4.5h-13.1l-2.7-9.6c-1.8-6.5-4.3-10.3-7.6-12c-4.6-2.3-4.9-3.5-5.1-20.2c-0.3-19.4-5.7-49.5-10.2-56.6
	c-1.6-2.5-2.9-6.3-2.9-8.6c0-3.2-1.3-4.1-5.7-4.1c-14.9,0-34.6-9.1-53.3-24.6c-9.6-8-18.5-11.7-27.9-11.7
	c-9.5,0-22.8,18.1-28.1,38.4c-2.9,11-8.6,17.3-28.3,31.3c-30.2,21.4-38.4,33-38.4,54.4c0,8.9,0.4,9.6,7.1,12.4c4.7,2,7.1,4.3,7.1,7
	c0,3.5-1.4,4-9.9,4C24,254.4,22.2,253.6,19,248.8L19,248.8z"/>
</svg>
