<?xml version="1.0" encoding="utf-8"?>
<!-- Generator: Adobe Illustrator 26.0.1, SVG Export Plug-In . SVG Version: 6.00 Build 0)  -->
<svg version="1.1"
	 id="svg5" sodipodi:docname="Saluki2.svg" xmlns:inkscape="http://www.inkscape.org/namespaces/inkscape" xmlns:sodipodi="http://sodipodi.sourceforge.net/DTD/sodipodi-0.dtd" xmlns:svg="http://www.w3.org/2000/svg"
	 xmlns="http://www.w3.org/2000/svg" xmlns:xlink="http://www.w3.org/1999/xlink" x="0px" y="0px" viewBox="0 0 399.3 338.5"
	 style="enable-background:new 0 0 399.3 338.5;" xml:space="preserve">
<path d="M11.4,337.5c-14.2-13.6-8.7-39.5-10.9-58c-3.9-22.2,15.8-33.8,28.5-48c3.8-5.3,11.3-9.2,9.4-16.6c1.4-28.4,10-56,20.9-82
	c12-18.9,30.7-36.1,54.4-36.4c25.7-1.5,51.5-4.4,77.1-1c27.3,2.1,54.7-8,76.8-23.6c17.5-7.8,18.2-29.9,30.4-43.2
	c9.4-14.9,22.5-34.1,43.1-27.2c20.7-0.4,26.6,21.8,43.8,28.4c11.3,4.8,23.6,18.8,4.2,22.4c-13.7,10.6-41-14.4-39.6,12.7
	c-0.9,13.5,10.4,39.8,8.6,41.6s-18.5,34.1-24.3,13.1c-9.7-16-5.6,17-10,23.2c-11.2,26.6-33.6,50.1-33,80.6
	c-4.8,27.3-4.7,55.2-3.8,82.8c-5.6,17.5,30.5,13.4,16.5,28.8c-17.7,9.3-39-1.5-34.7-22.9c-8.7-18.3-2.5-35.8-3.7-55.4
	c1.4-18.9-3.8-37.1-12.4-53.7c-13.3,0-29.7-2.5-43.3-6.9c-21.2-9.1-37.2-30.3-61.9-30.2c-21.7-4.5-44.1,11.3-47.8,32.9
	c-13,14.6-10.5,34.7,10.7,38.2c17.8,7,23.6,30.3,22.1,38.1c-4.9,1.5-55.7-2.2-80.2-11.1c-24.6-8.9-29.5,28.2-26.7,46.8
	c3.1,7.5,30.2,15.7,13.9,24.6C30.4,338,20.8,338.2,11.4,337.5L11.4,337.5z"/>
</svg>
