<?xml version="1.0" encoding="UTF-8" standalone="no"?>
<!-- Created with Inkscape (http://www.inkscape.org/) -->

<svg
   width="82.859222mm"
   height="73.6287mm"
   viewBox="0 0 82.859222 73.6287"
   version="1.1"
   id="svg5"
   inkscape:version="1.1.1 (3bf5ae0d25, 2021-09-20)"
   sodipodi:docname="Tiger.svg"
   xmlns:inkscape="http://www.inkscape.org/namespaces/inkscape"
   xmlns:sodipodi="http://sodipodi.sourceforge.net/DTD/sodipodi-0.dtd"
   xmlns="http://www.w3.org/2000/svg"
   xmlns:svg="http://www.w3.org/2000/svg">
  <sodipodi:namedview
     id="namedview7"
     pagecolor="#ffffff"
     bordercolor="#666666"
     borderopacity="1.0"
     inkscape:pageshadow="2"
     inkscape:pageopacity="0.0"
     inkscape:pagecheckerboard="0"
     inkscape:document-units="mm"
     showgrid="false"
     inkscape:zoom="0.83651094"
     inkscape:cx="183.50029"
     inkscape:cy="360.42565"
     inkscape:window-width="1920"
     inkscape:window-height="1147"
     inkscape:window-x="1192"
     inkscape:window-y="752"
     inkscape:window-maximized="1"
     inkscape:current-layer="layer1" />
  <defs
     id="defs2" />
  <g
     inkscape:label="Layer 1"
     inkscape:groupmode="layer"
     id="layer1"
     transform="translate(-56.312294,-53.288121)">
    <path
       style="fill:#000000;stroke-width:0.476517"
       d="m 135.2059,126.65985 c -4.48741,-0.71797 -9.05588,-1.66435 -12.93942,-4.22653 -5.88493,-3.43679 -12.44432,-5.98808 -19.34711,-5.99764 -14.006104,-0.83281 -28.063457,-1.10996 -42.076127,-0.2691 -3.130385,-3.34223 -3.957597,-8.51729 -4.43256,-12.99232 -0.508307,-4.255821 0.943473,-8.730478 4.575756,-11.234975 3.100978,-2.933792 7.910151,-2.627272 10.853549,-5.81042 4.063716,-3.375331 7.591135,-7.420417 9.696267,-12.31309 1.811347,-3.429921 3.694171,-6.862055 6.231176,-9.810788 0.581398,-3.092351 -3.507977,-8.35371 1.919544,-9.819269 2.951175,0.73624 5.606105,2.522828 8.661238,0.320701 3.960657,-1.637657 8.135827,0.195235 11.470117,2.385381 1.81246,-1.383548 3.40028,-4.142232 5.9756,-3.511332 4.51779,1.813348 1.72638,5.749409 0.57834,8.623106 0.78891,4.066309 3.82103,7.529907 3.66048,11.901763 0.30164,4.362408 0.24653,9.50844 -3.50404,12.484017 -1.51846,0.796398 -0.69588,2.32195 -0.54289,3.638948 0.80767,3.805024 0.79606,7.742371 1.59594,11.532768 2.32347,2.59922 6.81081,1.52149 9.40876,4.12341 2.86871,2.49159 0.59905,7.56717 5.52182,8.29303 3.12554,1.65542 4.03707,5.78255 5.92152,8.63122 1.99583,2.74964 -0.38742,5.10551 -3.22796,4.05112 z"
       id="path21"
       sodipodi:nodetypes="csssscsssssssssccsscsssscscsssssccssscc" />
  </g>
</svg>
