<?xml version="1.0" encoding="utf-8"?>
<!-- Generator: Adobe Illustrator 24.0.1, SVG Export Plug-In . SVG Version: 6.00 Build 0)  -->
<svg version="1.1" id="Layer_1" xmlns="http://www.w3.org/2000/svg" xmlns:xlink="http://www.w3.org/1999/xlink" x="0px" y="0px"
	 viewBox="0 0 527.7 178.5" style="enable-background:new 0 0 527.7 178.5;" xml:space="preserve">
<path d="M470.1,122.9l0-26.8c0-2.7-1.3-6.6-2.9-8.8l-27.5-37.2c-1.6-2.2-5.1-3.9-7.8-3.9h-24.3c-0.2,0-0.4,0.1-0.6,0.1V35.1
	c0-9.1-6.9-16.4-15.4-16.4h-48.8h-8.9H130.5H72.6c-8.5,0-15.4,7.3-15.4,16.4v80.8c0,0.1,0,0.1,0,0.2c0,0,0,0.1,0,0.1V134
	c0,5.4,4.4,9.8,9.8,9.8h1.4h9.6h5h0.6c0,9.2,7.5,16.7,16.7,16.7c9.2,0,16.7-7.5,16.7-16.7h4.4h2.6c0,9.2,7.5,16.7,16.7,16.7
	c9.2,0,16.7-7.5,16.7-16.7h6.9c0,9.2,7.5,16.7,16.7,16.7c9.2,0,16.7-7.5,16.7-16.7h121c0,9.2,7.5,16.7,16.7,16.7
	c9.2,0,16.7-7.5,16.7-16.7H414h5h1.6c0,9.2,7.5,16.7,16.7,16.7c9.2,0,16.7-7.5,16.7-16.7h3.4h3.7h2.5c5.4,0,9.8-4.4,9.8-9.8v-6.6
	C473.3,125.3,472,123.5,470.1,122.9z"/>
</svg>
