<?xml version="1.0" encoding="utf-8"?>
<!-- Generator: Adobe Illustrator 19.1.1, SVG Export Plug-In . SVG Version: 6.00 Build 0)  -->
<svg version="1.1" id="Layer_1" xmlns="http://www.w3.org/2000/svg" xmlns:xlink="http://www.w3.org/1999/xlink" x="0px" y="0px"
	 viewBox="0 0 841.9 595.3" style="enable-background:new 0 0 841.9 595.3;" xml:space="preserve">
<path d="M555.8,184.4c-1.1,0-2.2,0-3.2,0c-1.7,3-3.1,6.3-5.3,8.8c-3.6,4.2-7.2,8.8-11.8,11.5c-10.4,6-21.2,11.6-32.3,16.2
	c-12.3,5.2-24.9,12.2-37.6,13c-31.1,1.8-62.4,0-93.6,0.4c-13.6,0.2-27.3,1-40.5,3.8c-14.1,3-28.3,7.8-37.7,20
	c-11.1,14.4-16,31.8-14,49.2c2.1,18.5-3.4,34.9-7.3,51.9c0,2.2,0,4.3,0,6.5c8.8,10.8,18,11.2,27.9,0.8c8.9-9.2,12.6-20.5,11.7-33.2
	c-0.4-5.6-1.4-11.3-2.2-17.8c8.2,10.7,9.6,23.7,4,35.5c-2.6,5.5-6.5,10.5-9.2,15.9c-2,3.9-4.9,8.6-4.3,12.5
	c1.8,12.7,3.5,25.7,7.8,37.6c5.7,15.6,22.3,19.2,31.9,8.2c1.1-1.3,0.8-5.5-0.4-6.8c-3.6-3.8-8.4-6.4-12-10.2
	c-10.8-11.5-7.2-34,4.9-39.4c2.5,7.3,4.1,15.3,7.9,22.1c5.1,9.4,11.6,18,17.8,26.7c6.6,9.3,18.9,12.7,29.4,8.2
	c2.3-1,3.8-3.8,5.6-5.8c-1.7-1.4-3.2-3.2-5.1-4.3c-4.8-2.9-11-4.4-14.4-8.4c-12.8-14.9-19.4-34-5.1-52.3c0.7-0.8,1.4-1.7,1.9-2.6
	c5.7-10.1,11.3-20.2,17.6-31.5c0,0,2.4,0.3,4.4,1.4c12.2,6.6,24.8,10.7,38.9,9.6c5.1-0.4,10.3-0.2,15.4,0
	c8.5,0.2,13.2,4.3,13.6,12.5c1.6,27.3,8.8,53.4,15.8,79.6c2,7.6,7,11.5,14.5,11.4c8.8-0.1,17.7-0.6,26.4-1.8
	c3.1-0.4,5.9-3.4,8.9-5.2c-1.9-2.9-3.6-5.9-5.9-8.5c-1.1-1.3-3.3-1.9-5-2.2c-4.3-0.8-6.3-3.3-6.3-7.6c-0.2-21.5-0.8-43.1-0.6-64.6
	c0.1-10.3,3.9-18.9,12.4-25.9c5.5-4.5,8.7-11.7,13.1-17.6c2.3-3.1,4.3-7.2,7.4-8.7c5.7-2.7,11.6-4.4,12.3-12c0.1-1,1.9-2.5,2.8-2.5
	c7.7,0.3,9.7-6.2,12.5-11c3.4-6,7.1-7.5,13.5-4.7c7.7,3.4,15.6,5.3,22.6-2.3c1.8-2,5.2-2.4,7.9-3.5c0-1.6,0-3.2,0-4.9
	c-8.1-10.2-16.7-19.7-21.7-32.3c-3.7-9.2-4-18.1-4.4-27.4c-0.1-1.9-1.1-4.7-2.5-5.3c-1.2-0.6-3.9,0.9-5.4,2.1
	c-2.6,2.2-4.7,5-7.1,7.5c-4.1,4.2-8.2,3.6-10.7-1.7C559,191.7,557.4,188,555.8,184.4z"/>
</svg>
