<?xml version="1.0" encoding="UTF-8" standalone="no"?>
<!-- Created with Inkscape (http://www.inkscape.org/) -->

<svg
   width="130mm"
   height="57.130436mm"
   viewBox="0 0 130 57.130436"
   version="1.1"
   id="svg272"
   inkscape:version="1.1.1 (3bf5ae0d25, 2021-09-20)"
   sodipodi:docname="Zralok.svg"
   xmlns:inkscape="http://www.inkscape.org/namespaces/inkscape"
   xmlns:sodipodi="http://sodipodi.sourceforge.net/DTD/sodipodi-0.dtd"
   xmlns="http://www.w3.org/2000/svg"
   xmlns:svg="http://www.w3.org/2000/svg">
  <sodipodi:namedview
     id="namedview274"
     pagecolor="#ffffff"
     bordercolor="#666666"
     borderopacity="1.0"
     inkscape:pageshadow="2"
     inkscape:pageopacity="0.0"
     inkscape:pagecheckerboard="0"
     inkscape:document-units="mm"
     showgrid="false"
     inkscape:zoom="0.77771465"
     inkscape:cx="338.17031"
     inkscape:cy="523.9711"
     inkscape:window-width="1920"
     inkscape:window-height="1147"
     inkscape:window-x="1192"
     inkscape:window-y="752"
     inkscape:window-maximized="1"
     inkscape:current-layer="layer1" />
  <defs
     id="defs269" />
  <g
     inkscape:label="Layer 1"
     inkscape:groupmode="layer"
     id="layer1"
     transform="translate(-15.648016,-9.8664985)">
    <path
       style="fill:#000000;stroke-width:0.135482"
       d="M 88.552854,66.805044 C 84.711487,66.427459 80.953492,65.65579 78.078315,64.654173 75.974033,63.921124 74.185736,63.101171 71.414424,61.59875 c -3.080553,-1.670081 -6.454337,-3.386259 -6.522646,-3.317951 -0.02791,0.02791 -1.482894,0.358087 -3.233299,0.733727 -5.957999,1.27858 -11.680965,2.228837 -17.340388,2.879205 -5.473383,0.629005 -10.881935,0.256609 -15.141075,-1.042513 -1.076726,-0.328424 -1.155064,-0.375256 -0.917846,-0.54872 0.142645,-0.104325 0.32391,-0.191576 0.402813,-0.193949 0.0789,-0.0022 0.03733,-0.08493 -0.09238,-0.183367 -0.222481,-0.168917 -0.220562,-0.192876 0.03388,-0.423133 0.511979,-0.463334 0.347481,-0.59821 -0.644799,-0.528688 -5.304267,0.371646 -6.468521,0.313686 -8.691953,-0.432698 -1.259322,-0.422739 -2.988199,-1.308991 -3.391962,-1.738781 -0.28021,-0.298268 -0.286595,-0.345387 -0.09659,-0.712808 0.405771,-0.784671 2.285611,-2.28024 5.151757,-4.098646 2.443991,-1.550568 8.369523,-5.141202 10.128707,-6.137583 7.800009,-4.41783 17.881758,-8.979652 23.469883,-10.619723 7.217257,-2.118208 11.630665,-3.580535 13.44797,-4.455809 1.701734,-0.819607 2.096085,-1.316251 3.235231,-4.07445 1.888265,-4.572036 4.123655,-8.683995 5.668709,-10.427466 0.672427,-0.758781 1.759216,-1.424265 1.972273,-1.207691 0.07195,0.07314 0.227865,0.681681 0.346468,1.352316 0.118607,0.670635 0.634321,2.408187 1.146029,3.861225 0.706515,2.006192 0.884977,2.652434 0.741663,2.685697 -0.307838,0.07146 -0.217891,0.250933 0.270028,0.538812 0.350498,0.206794 0.51474,0.441756 0.695982,0.995622 0.130477,0.398723 0.355121,0.95962 0.49922,1.246438 0.634284,1.262501 3.813582,3.761195 5.000315,3.929872 1.088074,0.154655 20.819146,0.633864 25.787876,0.626312 l 1.90246,-0.003 0.38414,-0.542898 c 0.36521,-0.516159 1.65826,-1.399625 1.86317,-1.272988 0.053,0.03277 0.16939,0.363862 0.2586,0.735769 0.13074,0.544977 0.28566,0.779544 0.79831,1.208761 l 0.63609,0.532565 3.38136,-0.118469 c 4.21417,-0.147647 5.67089,-0.244487 6.36197,-0.422934 0.77309,-0.19962 1.43593,-0.967777 3.48872,-4.04299 2.06978,-3.100703 2.92961,-4.220166 7.01468,-9.132828 1.67855,-2.018604 3.67512,-4.474346 4.43682,-5.457204 1.40292,-1.8102378 1.60896,-2.0312259 1.75636,-1.8838199 0.11649,0.1164819 -0.19164,2.3432269 -0.5455,3.9422729 -0.25762,1.164115 -0.34021,1.360115 -0.58802,1.395468 -0.2355,0.03359 -0.30062,0.157636 -0.35562,0.677405 -0.037,0.349949 -0.72241,2.343345 -1.52305,4.429761 -2.20777,5.753295 -3.02417,8.005996 -3.39875,9.378297 -0.39125,1.433339 -0.35744,1.835468 0.35633,4.238093 0.474,1.595558 1.16012,5.62312 1.36163,7.992938 0.11564,1.359998 0.22027,1.866954 0.53122,2.574151 0.21297,0.484349 0.43013,1.05671 0.48257,1.271918 l 0.0953,0.391288 -0.52744,-0.09783 c -0.88962,-0.16501 -1.72263,-0.720725 -3.07524,-2.051551 -1.56405,-1.538842 -2.36601,-2.509922 -4.63341,-5.610502 -0.9536,-1.304009 -2.03546,-2.721489 -2.40414,-3.149948 -0.59846,-0.695506 -0.72583,-0.779023 -1.18801,-0.779023 -1.19404,0 -8.48405,2.498746 -8.83905,3.029697 -0.0567,0.08477 -0.0665,0.382752 -0.022,0.662181 l 0.081,0.508057 h -1.07301 c -0.90584,0 -1.30345,0.08265 -2.5522,0.530522 -3.03212,1.087496 -7.23715,2.802784 -7.23715,2.952124 0,0.03529 0.13267,0.171611 0.29482,0.302908 0.2934,0.237589 0.28888,0.242224 -0.94514,0.970091 -1.40468,0.828519 -1.42738,0.878874 -0.9035,2.004257 0.18714,0.402032 0.30997,0.761269 0.27294,0.798297 -0.037,0.03702 -1.63871,-0.148277 -3.55929,-0.411797 l -3.49195,-0.479121 -0.94837,0.399835 c -0.52161,0.219912 -3.173663,1.528647 -5.893457,2.908303 -5.651437,2.866775 -6.366744,3.186237 -10.63531,4.74975 -3.99503,1.463325 -6.57086,2.489912 -6.57086,2.618792 0,0.05587 0.13589,0.137108 0.301976,0.180541 0.295518,0.07727 0.292399,0.08884 -0.145763,0.54091 l -0.447737,0.461947 1.060265,0.77677 c 0.583145,0.427219 2.310077,1.601857 3.837635,2.610294 3.253648,2.147958 7.142144,4.890058 7.880904,5.557489 0.285431,0.257855 0.51896,0.553194 0.51896,0.656305 0,0.221379 -0.09625,0.220296 -2.641896,-0.0299 z"
       id="path288" />
  </g>
</svg>
